<?xml version="1.0" standalone="no"?>
<!DOCTYPE svg PUBLIC "-//W3C//DTD SVG 1.1//EN" "http://www.w3.org/Graphics/SVG/1.1/DTD/svg11.dtd" >
<svg xmlns="http://www.w3.org/2000/svg" xmlns:xlink="http://www.w3.org/1999/xlink" version="1.1">
<metadata>
Created by FontForge 20170731 at Mon Jul  6 14:25:57 2015
 By Aleksey,,,
Copyright 1990-1993 Bitstream Inc.  All rights reserved.
</metadata>
<defs>
<font id="PepsiLight" horiz-adv-x="1327" >
  <font-face 
    font-family="Pepsi Light"
    font-weight="400"
    font-stretch="expanded"
    units-per-em="2048"
    panose-1="2 11 5 5 2 2 2 2 2 4"
    ascent="1638"
    descent="-410"
    x-height="1085"
    cap-height="1479"
    bbox="-426 -483 2474 1944"
    underline-thickness="104"
    underline-position="-351"
    unicode-range="U+0020-F002"
  />
<missing-glyph horiz-adv-x="1229" 
d="M102 -362v1806h1024v-1806h-1024zM217 -248h795v1577h-795v-1577z" />
    <glyph glyph-name=".notdef" horiz-adv-x="1229" 
d="M102 -362v1806h1024v-1806h-1024zM217 -248h795v1577h-795v-1577z" />
    <glyph glyph-name=".null" horiz-adv-x="0" 
 />
    <glyph glyph-name="nonmarkingreturn" horiz-adv-x="664" 
 />
    <glyph glyph-name="space" unicode=" " horiz-adv-x="664" 
 />
    <glyph glyph-name="exclam" unicode="!" horiz-adv-x="639" 
d="M274 346l-36 1133h165l-36 -1133h-93zM389.5 170q28.5 -29 28.5 -70q0 -42 -28.5 -71t-68.5 -29t-68.5 29t-28.5 71q0 41 28.5 70t68.5 29t68.5 -29z" />
    <glyph glyph-name="quotedbl" unicode="&#x22;" horiz-adv-x="569" 
d="M473 1434v-553h-102v553h102zM199 1434v-553h-101v553h101z" />
    <glyph glyph-name="numbersign" unicode="#" horiz-adv-x="1575" 
d="M975 864h-266l-97 -276h267zM918 1454l-168 -483h264l172 483h127l-170 -483h315l-37 -107h-317l-98 -276h340l-37 -109h-340l-170 -479h-129l172 479h-269l-172 -479h-127l170 479h-327l39 109h325l101 276h-353l35 107h354l173 483h127z" />
    <glyph glyph-name="dollar" unicode="$" 
d="M719 127q185 5 286 75.5t101 194.5q0 120 -78.5 173.5t-308.5 78.5v-522zM612 809v514q-162 -8 -255 -78.5t-93 -183.5q0 -111 77.5 -167.5t270.5 -84.5zM78 451h143q14 -151 115 -234.5t276 -89.5v543q-249 29 -372 122.5t-123 254.5q0 171 133 277.5t362 117.5v160h107
v-160q242 -12 372 -112t144 -286h-137q-17 126 -115.5 197.5t-263.5 77.5v-528q300 -37 415 -120.5t115 -254.5q0 -191 -136.5 -298t-393.5 -118v-182h-107v182q-240 8 -379.5 125.5t-154.5 325.5z" />
    <glyph glyph-name="percent" unicode="%" horiz-adv-x="1718" 
d="M367 -39l864 1518h121l-865 -1518h-120zM1077 354q0 -144 55 -218.5t162 -74.5q108 0 161.5 73.5t53.5 219.5t-53.5 219.5t-161.5 73.5q-107 0 -162 -74t-55 -219zM963 354q0 192 85 293t246 101q162 0 246 -100.5t84 -293.5t-84 -293t-246 -100q-161 0 -246 101t-85 292
zM209 1087q0 -144 55 -219t162 -75t161 74t54 220q0 147 -54 220t-161 73t-162 -74t-55 -219zM94 1087q0 192 85 292t247 100t246 -99.5t84 -292.5q0 -192 -84 -292.5t-246 -100.5q-161 0 -246.5 101t-85.5 292z" />
    <glyph glyph-name="ampersand" unicode="&#x26;" horiz-adv-x="1524" 
d="M608 922q127 65 185.5 127.5t58.5 134.5q0 75 -57 123.5t-148 48.5q-92 0 -148.5 -49.5t-56.5 -130.5q0 -61 44 -128t122 -126zM1389 0l-199 190q-109 -115 -243 -172t-294 -57q-241 0 -392.5 123t-151.5 315q0 140 88.5 247t287.5 206q-90 89 -131 164t-41 151
q0 143 92 227.5t246 84.5q148 0 242 -83t94 -212q0 -106 -66 -190.5t-216 -168.5l466 -432q41 81 66 156.5t35 148.5h135q-6 -101 -39.5 -201.5t-93.5 -199.5l299 -297h-184zM1092 281l-510 477q-175 -85 -250.5 -167.5t-75.5 -184.5q0 -138 109.5 -228t281.5 -90
q131 0 239.5 47t205.5 146z" />
    <glyph glyph-name="quotesingle" unicode="'" horiz-adv-x="295" 
d="M199 1434v-553h-101v553h101z" />
    <glyph glyph-name="parenleft" unicode="(" horiz-adv-x="627" 
d="M614 1479q-172 -251 -252.5 -477t-80.5 -457t80.5 -458.5t252.5 -477.5h-106q-197 255 -290 482.5t-93 453.5q0 225 92.5 451.5t290.5 482.5h106z" />
    <glyph glyph-name="parenright" unicode=")" horiz-adv-x="627" 
d="M10 -391q173 252 254.5 479t81.5 457q0 229 -81 455t-255 479h107q197 -256 290 -482.5t93 -451.5q0 -226 -93 -453.5t-290 -482.5h-107z" />
    <glyph glyph-name="asterisk" unicode="*" horiz-adv-x="1024" 
d="M350 856l-86 62l164 223l-264 86l33 98l264 -84v277h102v-277l264 84l33 -98l-264 -86l164 -223l-86 -62l-162 223z" />
    <glyph glyph-name="plus" unicode="+" horiz-adv-x="1706" 
d="M903 1221v-562h549v-98h-549v-561h-98v561h-551v98h551v562h98z" />
    <glyph glyph-name="comma" unicode="," horiz-adv-x="664" 
d="M250 0v180h166v-239q0 -115 -37.5 -172.5t-128.5 -87.5v94q39 20 56.5 51.5t17.5 85.5v88h-74z" />
    <glyph glyph-name="hyphen" unicode="-" horiz-adv-x="948" 
d="M113 477v131h723v-131h-723z" />
    <glyph glyph-name="period" unicode="." horiz-adv-x="664" 
d="M250 0v180h166v-180h-166z" />
    <glyph glyph-name="slash" unicode="/" horiz-adv-x="569" 
d="M94 -190h-112l577 1708h113z" />
    <glyph glyph-name="zero" unicode="0" 
d="M252 721q0 -309 103 -463t309 -154q205 0 308 154t103 463t-103 462.5t-308 153.5q-206 0 -309 -153.5t-103 -462.5zM104 721q0 368 144 563t416 195q271 0 415 -195t144 -563q0 -369 -144.5 -564.5t-414.5 -195.5q-271 0 -415.5 195.5t-144.5 564.5z" />
    <glyph glyph-name="one" unicode="1" horiz-adv-x="799" 
d="M487 0v1161q-128 -100 -336 -100v123q167 0 263 72.5t98 221.5l119 1v-1479h-144z" />
    <glyph glyph-name="two" unicode="2" 
d="M100 0v8q0 108 36.5 197.5t113.5 171.5q38 40 124 96t285 168q33 19 93 52q157 86 194 122q54 51 76 101.5t22 123.5q0 142 -97.5 222.5t-270.5 80.5q-200 0 -307 -98.5t-107 -283.5h-141v8q0 238 147.5 375t403.5 137q240 0 380 -120.5t140 -324.5q0 -143 -77 -243.5
t-357 -255.5q-307 -170 -396.5 -246t-97.5 -147l916 -1v-143h-1080z" />
    <glyph glyph-name="three" unicode="3" 
d="M101 459l151 -1q3 -175 108.5 -265.5t307.5 -90.5q195 0 299 80t104 230q0 149 -104.5 213.5t-350.5 64.5h-53v131h35q216 0 315 62.5t99 197.5q0 134 -89 201.5t-266 67.5q-166 0 -261.5 -95t-98.5 -261l-150 -1q16 238 148.5 362t372.5 124q235 0 364 -100.5
t129 -282.5q0 -130 -64.5 -216t-185.5 -116q148 -17 229 -109.5t81 -242.5q0 -214 -145 -332.5t-406 -118.5q-273 0 -419.5 128.5t-149.5 369.5z" />
    <glyph glyph-name="four" unicode="4" 
d="M842 508v766l-617 -766h617zM842 0v375h-760v145l766 953h137v-965h252v-133h-252v-375h-143z" />
    <glyph glyph-name="five" unicode="5" 
d="M100 375h150q23 -136 123 -204.5t276 -68.5q195 0 310.5 99.5t115.5 265.5q0 172 -106.5 262t-309.5 90q-154 0 -253 -48.5t-121 -133.5h-140l134 805h843v-144h-733l-80 -462q77 61 173 91.5t210 30.5q244 0 387.5 -130t143.5 -353q0 -238 -156 -376t-426 -138
q-232 0 -368.5 104.5t-172.5 309.5z" />
    <glyph glyph-name="six" unicode="6" 
d="M279 463q0 -165 108.5 -262t294.5 -97q193 0 304.5 97.5t111.5 265.5q0 166 -103 259t-286 93q-201 0 -315.5 -95t-114.5 -261zM254 721q70 115 189 174t280 59q239 0 379.5 -132.5t140.5 -356.5q0 -232 -153.5 -368t-415.5 -136q-293 0 -432.5 182.5t-139.5 567.5
q0 388 147.5 578t448.5 190q214 0 351 -102.5t149 -270.5h-145q-22 117 -113.5 177t-247.5 60q-222 0 -330 -143.5t-108 -437.5v-41z" />
    <glyph glyph-name="seven" unicode="7" 
d="M401 0q69 360 229 681.5t417 616.5h-932v144h1061v-168q-255 -316 -403 -631t-195 -643h-177z" />
    <glyph glyph-name="eight" unicode="8" 
d="M250 414q0 -149 107 -228.5t307 -79.5q199 0 306 79.5t107 228.5q0 142 -110.5 224.5t-302.5 82.5t-303 -83t-111 -224zM315 1096q0 -119 88.5 -179.5t260.5 -60.5t260 60.5t88 179.5q0 123 -87.5 185t-260.5 62t-261 -62t-88 -185zM418 786q-123 45 -185.5 127.5
t-62.5 200.5q0 170 131.5 267.5t362.5 97.5q230 0 361.5 -97.5t131.5 -267.5q0 -118 -62.5 -200.5t-185.5 -127.5q159 -35 237.5 -131.5t78.5 -257.5q0 -206 -147 -321t-414 -115q-268 0 -415 115t-147 321q0 161 78.5 257.5t237.5 131.5z" />
    <glyph glyph-name="nine" unicode="9" 
d="M274 336q22 -118 113.5 -179t247.5 -61q221 0 329.5 144.5t108.5 439.5v41q-69 -115 -187.5 -174.5t-281.5 -59.5q-239 0 -380.5 133t-141.5 357q0 231 154 366.5t417 135.5q293 0 432.5 -182.5t139.5 -565.5q0 -389 -147.5 -579.5t-448.5 -190.5q-214 0 -351.5 103.5
t-150.5 271.5h147zM229 975q0 -167 103 -259.5t289 -92.5q202 0 314 96t112 270q0 157 -110 252.5t-292 95.5q-193 0 -304.5 -97t-111.5 -265z" />
    <glyph glyph-name="colon" unicode=":" horiz-adv-x="639" 
d="M238 0v180h165v-180h-165zM238 840v180h165v-180h-165z" />
    <glyph glyph-name="semicolon" unicode=";" horiz-adv-x="639" 
d="M238 840v180h165v-180h-165zM238 0v180h165v-239q0 -115 -37 -172.5t-128 -87.5v94q40 21 57.5 53t17.5 84v88h-75z" />
    <glyph glyph-name="less" unicode="&#x3c;" horiz-adv-x="1706" 
d="M1442 1026l-1022 -416l1022 -413v-109l-1178 481v82l1178 484v-109z" />
    <glyph glyph-name="equal" unicode="=" horiz-adv-x="1706" 
d="M1452 473v-98h-1198v98h1198zM1452 846v-98h-1198v98h1198z" />
    <glyph glyph-name="greater" unicode="&#x3e;" horiz-adv-x="1706" 
d="M1442 651v-82l-1178 -481v109l1022 413l-1022 416v109z" />
    <glyph glyph-name="question" unicode="?" horiz-adv-x="1200" 
d="M459 356v120q0 201 236.5 347t236.5 274q0 140 -97 211.5t-264 71.5q-169 0 -269.5 -74.5t-100.5 -195.5h-154q0 189 138.5 298.5t379.5 109.5q242 0 383.5 -110t141.5 -313q0 -198 -232.5 -332.5t-232.5 -273.5v-133h-166zM610.5 170q28.5 -29 28.5 -70q0 -42 -28.5 -71
t-68.5 -29t-68.5 29t-28.5 71q0 41 28.5 70t68.5 29t68.5 -29z" />
    <glyph glyph-name="at" unicode="@" horiz-adv-x="2048" 
d="M1298 836l60 125h94l-139 -562q-10 -44 -13.5 -62.5t-3.5 -29.5q0 -43 28.5 -67.5t78.5 -24.5q52 0 106.5 21t104.5 61q97 77 151 204.5t54 282.5q0 254 -198 417t-509 163q-175 0 -320 -49.5t-262 -149.5q-147 -126 -222 -290.5t-75 -362.5q0 -174 60 -305t184 -232
q102 -82 244 -128t301 -46q171 0 334.5 49.5t300.5 143.5l39 -55q-147 -111 -311 -166.5t-343 -55.5q-191 0 -347 46.5t-275 138.5q-155 118 -229 273.5t-74 361.5q0 204 86 381.5t252 314.5q132 109 298.5 165t360.5 56q162 0 308 -44t249 -124q129 -99 194.5 -228
t65.5 -280q0 -171 -62 -309.5t-181 -232.5q-70 -54 -149 -82.5t-161 -28.5q-97 0 -144.5 37.5t-47.5 113.5q0 4 1 14t1 15q-51 -87 -127 -133.5t-168 -46.5q-153 0 -233 83.5t-80 244.5q0 230 135 388t329 158q94 0 158 -41t96 -122zM1210 469l62 248q-18 93 -75.5 145.5
t-139.5 52.5q-154 0 -254.5 -133.5t-100.5 -337.5q0 -111 55 -173t152 -62q107 0 189.5 71.5t111.5 188.5z" />
    <glyph glyph-name="A" unicode="A" horiz-adv-x="1561" 
d="M442 600h678l-338 756zM16 0l682 1479h170l674 -1479h-149l-207 457h-809l-209 -457h-152z" />
    <glyph glyph-name="B" unicode="B" horiz-adv-x="1518" 
d="M174 0v1479h719q229 0 347 -94.5t118 -278.5q0 -118 -57.5 -199t-174.5 -127q140 -27 213.5 -117t73.5 -233q0 -220 -127.5 -325t-394.5 -105h-717zM324 844h524q195 0 276.5 58t81.5 192q0 132 -80 190.5t-264 58.5h-538v-499zM324 147h553q202 0 292.5 64t90.5 205
q0 154 -84 224.5t-267 70.5h-585v-564z" />
    <glyph glyph-name="C" unicode="C" horiz-adv-x="1398" 
d="M1313 1255q-149 119 -427 119q-279 0 -462.5 -186t-183.5 -449t203.5 -449t452.5 -186q268 0 417 119v-173q-154 -89 -411 -89q-317 0 -564.5 228t-247.5 550q0 323 232.5 551t569.5 228q267 0 421 -89v-174z" />
    <glyph glyph-name="D" unicode="D" horiz-adv-x="1659" 
d="M713 1479q252 0 383 -31t227 -105q118 -92 175.5 -241t57.5 -363t-58 -363t-179 -243q-93 -72 -223.5 -102.5t-382.5 -30.5h-539v1479h539zM680 1346h-358v-1205h391q194 0 301.5 22t183.5 73q106 70 156.5 194.5t50.5 319.5q0 185 -51 309t-156 194q-76 50 -186 71.5
t-332 21.5z" />
    <glyph glyph-name="E" unicode="E" horiz-adv-x="1407" 
d="M174 0v1479h1137v-138h-989v-518h913v-139h-913v-545h989v-139h-1137z" />
    <glyph glyph-name="F" unicode="F" horiz-adv-x="1335" 
d="M174 0v1479h1094v-140h-946v-510h843v-145h-843v-684h-148z" />
    <glyph glyph-name="G" unicode="G" horiz-adv-x="1702" 
d="M1432 268q-77 -149 -224 -228t-350 -79q-344 0 -550 211t-206 567q0 363 207 571t570 208q278 0 459.5 -140t203.5 -370h-156q-35 178 -166.5 271t-349.5 93q-287 0 -452.5 -169t-165.5 -464q0 -291 165 -463t443 -172q234 0 395.5 135t161.5 324v74h-465v129h615v-766
h-119z" />
    <glyph glyph-name="H" unicode="H" horiz-adv-x="1608" 
d="M174 0v1479h148v-617h962v617h148v-1479h-148v721h-962v-721h-148z" />
    <glyph glyph-name="I" unicode="I" horiz-adv-x="516" 
d="M184 0v1479h148v-1479h-148z" />
    <glyph glyph-name="J" unicode="J" horiz-adv-x="1210" 
d="M94 495l148 1q0 -2 -1 -7q-3 -42 -3 -63q0 -163 80.5 -245.5t238.5 -82.5q177 0 251.5 89.5t74.5 308.5v983h147v-955q0 -177 -18.5 -256.5t-63.5 -138.5q-61 -81 -157 -124.5t-216 -43.5q-238 0 -360.5 121t-122.5 356q0 24 0.5 35.5t1.5 21.5z" />
    <glyph glyph-name="K" unicode="K" horiz-adv-x="1460" 
d="M174 0v1479h148v-809l915 809h205l-697 -619l697 -860h-189l-618 764l-313 -275v-489h-148z" />
    <glyph glyph-name="L" unicode="L" horiz-adv-x="1309" 
d="M174 0v1479h148v-1340h929v-139h-1077z" />
    <glyph glyph-name="M" unicode="M" horiz-adv-x="2062" 
d="M176 0v1479h236l624 -1342l633 1342h217v-1479h-145l6 1352l-627 -1352h-170l-643 1352l15 -1352h-146z" />
    <glyph glyph-name="N" unicode="N" horiz-adv-x="1716" 
d="M174 0v1479h188l1035 -1327v1327h143v-1479h-197l-1026 1327v-1327h-143z" />
    <glyph glyph-name="O" unicode="O" horiz-adv-x="1759" 
d="M1429.5 1290q227.5 -228 227.5 -551q0 -322 -227.5 -550t-550.5 -228q-322 0 -549.5 228t-227.5 550q0 323 227.5 551t549.5 228q323 0 550.5 -228zM879 1374q-260 0 -443.5 -186t-183.5 -449t183.5 -449t443.5 -186q259 0 442.5 186t183.5 449t-183.5 449t-442.5 186z
" />
    <glyph glyph-name="P" unicode="P" horiz-adv-x="1407" 
d="M322 750h428q235 0 325 66t90 228q0 164 -90.5 230.5t-324.5 66.5h-428v-591zM174 0v1479h602q277 0 411 -107.5t134 -329.5q0 -221 -134 -328.5t-411 -107.5h-454v-606h-148z" />
    <glyph glyph-name="Q" unicode="Q" horiz-adv-x="1759" 
d="M1326 294q179 185 179 445q0 263 -183.5 449t-442.5 186q-260 0 -443.5 -186t-183.5 -449t183.5 -449t443.5 -186q188 0 336 98l-185 238l118 86zM1306 87q-187 -126 -427 -126q-322 0 -549.5 228t-227.5 550q0 323 227.5 551t549.5 228q323 0 550.5 -228t227.5 -551
q0 -322 -227 -550q-7 -7 -14 -13l158 -206l-115 -80z" />
    <glyph glyph-name="R" unicode="R" horiz-adv-x="1550" 
d="M848 1341h-526v-567h544q212 0 305 67t93 218q0 153 -93 217.5t-323 64.5zM174 0v1479h709q264 0 397 -100t133 -298q0 -147 -61.5 -235.5t-194.5 -132.5q113 -18 161.5 -75t65.5 -206q7 -57 14 -158q14 -213 58 -274h-172q-28 85 -37 237.5t-14 194.5
q-14 110 -79.5 156.5t-209.5 46.5h-622v-635h-148z" />
    <glyph glyph-name="S" unicode="S" horiz-adv-x="1473" 
d="M769 1382q-232 0 -344 -76.5t-112 -207.5q0 -104 78 -159.5t291 -92.5l281 -49q202 -36 295.5 -127t93.5 -254q0 -214 -158.5 -334.5t-441.5 -120.5q-388 0 -566 129l80 138q158 -122 471 -122q211 0 335 82.5t124 221.5q0 106 -71.5 160.5t-297.5 95.5l-315 55
q-176 30 -263 122t-87 247q0 195 152 311.5t451 116.5q318 0 535 -140l-67 -131q-217 135 -464 135z" />
    <glyph glyph-name="T" unicode="T" horiz-adv-x="1298" 
d="M575 0v1343h-571v136h1290v-136h-571v-1343h-148z" />
    <glyph glyph-name="U" unicode="U" horiz-adv-x="1640" 
d="M176 1479h150v-908q0 -242 119 -354.5t374 -112.5q256 0 376 113t120 354v908h149v-947q0 -276 -166.5 -423.5t-478.5 -147.5q-315 0 -479 147t-164 431v940z" />
    <glyph glyph-name="V" unicode="V" horiz-adv-x="1532" 
d="M672 0l-662 1479h162l594 -1352l594 1352h162l-664 -1479h-186z" />
    <glyph glyph-name="W" unicode="W" horiz-adv-x="2286" 
d="M528 0l-489 1479h158l432 -1348l424 1348h178l418 -1348l442 1348h154l-500 -1479h-195l-411 1321l-418 -1321h-193z" />
    <glyph glyph-name="X" unicode="X" horiz-adv-x="1421" 
d="M14 0l607 760l-564 719h189l473 -619l475 619h184l-575 -717l604 -762h-193l-501 659l-506 -659h-193z" />
    <glyph glyph-name="Y" unicode="Y" horiz-adv-x="1473" 
d="M662 0v639l-637 840h188l522 -721l529 721h182l-637 -840v-639h-147z" />
    <glyph glyph-name="Z" unicode="Z" horiz-adv-x="1425" 
d="M66 0v145l1087 1196h-1034v138h1239v-138l-1108 -1196h1108v-145h-1292z" />
    <glyph glyph-name="bracketleft" unicode="[" horiz-adv-x="627" 
d="M152 -389v1868h417v-123h-284v-1622h284v-123h-417z" />
    <glyph glyph-name="backslash" unicode="\" horiz-adv-x="569" 
d="M475 -190l-577 1708h112l578 -1708h-113z" />
    <glyph glyph-name="bracketright" unicode="]" horiz-adv-x="627" 
d="M473 1479v-1868h-418v123h285v1622h-285v123h418z" />
    <glyph glyph-name="asciicircum" unicode="^" horiz-adv-x="2048" 
d="M1094 1458l530 -557h-143l-457 455l-459 -455h-143l532 557h140z" />
    <glyph glyph-name="underscore" unicode="_" horiz-adv-x="1024" 
d="M1024 -383v-100h-1024v100h1024z" />
    <glyph glyph-name="grave" unicode="`" horiz-adv-x="1024" 
d="M510 1235l-242 303h187l176 -303h-121z" />
    <glyph glyph-name="a" unicode="a" horiz-adv-x="1384" 
d="M257 542q0 -183 127.5 -312.5t307.5 -129.5t307 129.5t127 312.5q0 184 -127 313.5t-307 129.5t-307.5 -129.5t-127.5 -313.5zM1126 0v157q-12 -13 -25 -26q-170 -170 -411 -170q-240 0 -410 170t-170 411t170 411.5t410 170.5q241 0 411 -170.5t170 -411.5v-542h-145z
" />
    <glyph glyph-name="b" unicode="b" horiz-adv-x="1384" 
d="M693 985q-180 0 -307 -129.5t-127 -313.5q0 -183 127 -312.5t307 -129.5t307.5 129.5t127.5 312.5q0 184 -127.5 313.5t-307.5 129.5zM257 160v-160h-143v1479h143v-554q13 14 27 29q170 170 411 170q240 0 410 -170.5t170 -411.5t-170 -411t-410 -170q-241 0 -411 170
q-14 14 -27 29z" />
    <glyph glyph-name="c" unicode="c" horiz-adv-x="1124" 
d="M1051 870q-144 115 -364 115t-347 -129.5t-127 -313.5q0 -183 127 -312.5t347 -129.5t364 116v-158q-150 -97 -362 -97q-281 0 -451 170t-170 411t170 411.5t451 170.5q212 0 362 -98v-156z" />
    <glyph glyph-name="d" unicode="d" horiz-adv-x="1384" 
d="M388.5 855.5q-127.5 -129.5 -127.5 -313.5q0 -183 127.5 -312.5t307.5 -129.5t307 129.5t127 312.5q0 184 -127 313.5t-307 129.5t-307.5 -129.5zM1105 131q-170 -170 -411 -170q-240 0 -410 170t-170 411t170 411.5t410 170.5q241 0 411 -170q14 -15 27 -29v554h143
v-1479h-143v160q-13 -15 -27 -29z" />
    <glyph glyph-name="e" unicode="e" horiz-adv-x="1319" 
d="M1090 621q-24 138 -119 235q-128 129 -308 129t-307 -129q-95 -97 -119 -225q97 25 200 25q111 0 229 -29q119 -29 231 -29q100 0 193 23zM1245 502q-170 -32 -318 -32q-135 0 -252 27q-129 29 -246 29q-105 0 -199 -24q10 -154 126 -272q127 -130 307 -130t308 130
q52 53 83 116h159q-42 -119 -138 -215q-170 -170 -410 -170q-241 0 -411 170t-170 411t170 411.5t411 170.5q240 0 410 -170.5t170 -451.5z" />
    <glyph glyph-name="f" unicode="f" horiz-adv-x="612" 
d="M356 1085h246v-118h-246v-967h-143v967h-184v118h184v106q0 139 108.5 213.5t278.5 74.5v-131q-100 0 -172 -37.5t-72 -138.5v-87z" />
    <glyph glyph-name="g" unicode="g" horiz-adv-x="1305" 
d="M217 542q0 -183 127.5 -312.5t307.5 -129.5t306 129.5t126 312.5q0 184 -126 313.5t-306 129.5t-307.5 -129.5t-127.5 -313.5zM1084 155q-11 -12 -23 -24q-170 -170 -411 -170q-240 0 -410 170t-170 411t170 411.5t410 170.5q241 0 411 -170.5t170 -411.5v-504
q0 -211 -155 -351t-425 -140q-311 0 -499 238l107 96q140 -195 390 -195q210 0 322.5 99.5t112.5 252.5v117z" />
    <glyph glyph-name="h" unicode="h" horiz-adv-x="1232" 
d="M110 1479h141v-501l6 6q147 140 362 140q214 0 359 -135t145 -406v-583h-143v583q0 213 -103.5 307.5t-259.5 94.5t-261 -99.5t-105 -282.5v-603h-141v1479z" />
    <glyph glyph-name="i" unicode="i" horiz-adv-x="461" 
d="M160 0v1085h141v-1085h-141zM299.5 1450q28.5 -29 28.5 -70q0 -42 -28.5 -71t-68.5 -29t-68.5 29t-28.5 71q0 41 28.5 70t68.5 29t68.5 -29z" />
    <glyph glyph-name="j" unicode="j" horiz-adv-x="461" 
d="M317.5 1450q28.5 -29 28.5 -70q0 -42 -28.5 -71t-68.5 -29t-68.5 29t-28.5 71q0 41 28.5 70t68.5 29t68.5 -29zM178 1085h143v-1126q0 -159 -108.5 -253.5t-278.5 -94.5v131q100 0 172 57.5t72 178.5v1107z" />
    <glyph glyph-name="k" unicode="k" horiz-adv-x="1208" 
d="M154 0v1479h143v-899l625 505h211l-494 -399l575 -686h-190l-502 596l-225 -184v-412h-143z" />
    <glyph glyph-name="l" unicode="l" horiz-adv-x="461" 
d="M160 0v1479h141v-1479h-141z" />
    <glyph glyph-name="m" unicode="m" horiz-adv-x="1823" 
d="M841 602q0 184 -92.5 283.5t-221.5 99.5q-121 0 -213 -89.5t-92 -273.5v-622h-145v622q0 241 135 371.5t313 130.5q193 0 328 -140q35 -37 61 -81q27 44 62 81q135 140 328 140q178 0 313 -130.5t135 -371.5v-622h-145v622q0 184 -92 273.5t-213 89.5
q-129 0 -221.5 -99.5t-92.5 -283.5v-602h-147v602z" />
    <glyph glyph-name="n" unicode="n" horiz-adv-x="1312" 
d="M1026 0v583q0 213 -106.5 307.5t-266.5 94.5t-268 -99.5t-108 -282.5v-603h-145v603q0 241 151 381t372 140q220 0 369 -135t149 -406v-583h-147z" />
    <glyph glyph-name="o" unicode="o" 
d="M1075 953.5q170 -170.5 170 -411.5t-170 -411t-410 -170q-241 0 -411 170t-170 411t170 411.5t411 170.5q240 0 410 -170.5zM663 985q-180 0 -307 -129.5t-127 -313.5q0 -183 127 -312.5t307 -129.5t307.5 129.5t127.5 312.5q0 184 -127.5 313.5t-307.5 129.5z" />
    <glyph glyph-name="p" unicode="p" horiz-adv-x="1328" 
d="M669 985q-180 0 -307 -129.5t-127 -313.5q0 -183 127 -312.5t307 -129.5t307.5 129.5t127.5 312.5q0 184 -127.5 313.5t-307.5 129.5zM90 542q0 241 170 411.5t411 170.5q240 0 410 -170.5t170 -411.5t-170 -411t-410 -170q-241 0 -411 170q-13 13 -25 26v-546h-145v931z
" />
    <glyph glyph-name="q" unicode="q" horiz-adv-x="1305" 
d="M344.5 855.5q-127.5 -129.5 -127.5 -313.5q0 -183 127.5 -312.5t307.5 -129.5t307 129.5t127 312.5q0 184 -127 313.5t-307 129.5t-307.5 -129.5zM1231 -389h-145v546q-12 -13 -25 -26q-170 -170 -411 -170q-240 0 -410 170t-170 411t170 411.5t410 170.5
q241 0 411 -170.5t170 -411.5v-931z" />
    <glyph glyph-name="r" unicode="r" horiz-adv-x="761" 
d="M692 968q-56 17 -119 17q-171 0 -263 -94.5t-92 -278.5v-612h-145v612q0 241 135 376.5t363 135.5q63 0 121 -12v-144z" />
    <glyph glyph-name="s" unicode="s" horiz-adv-x="947" 
d="M508 984q-137 0 -203 -48.5t-66 -122.5q0 -135 318 -212.5t318 -314.5q0 -145 -127 -235t-334 -90q-197 0 -354 85l64 127q141 -75 287 -75q145 0 232 56.5t87 135.5q0 126 -319.5 208t-319.5 307q0 137 109 228t301 91q201 0 342 -75l-55 -138q-123 73 -280 73z" />
    <glyph glyph-name="t" unicode="t" horiz-adv-x="612" 
d="M356 367q0 -121 72 -178.5t172 -57.5v-131q-170 0 -278.5 94.5t-108.5 253.5v619h-184v118h184v318h143v-318h246v-118h-246v-600z" />
    <glyph glyph-name="u" unicode="u" 
d="M1175 1085v-543q0 -321 -145 -451t-365 -130q-221 0 -371 130t-150 371v623h145v-623q0 -183 107 -272.5t267 -89.5t262.5 89.5t102.5 352.5v543h147z" />
    <glyph glyph-name="v" unicode="v" horiz-adv-x="1104" 
d="M469 0l-494 1085h164l406 -940l409 940h158l-496 -1085h-147z" />
    <glyph glyph-name="w" unicode="w" horiz-adv-x="1759" 
d="M403 0l-380 1085h155l318 -952l290 952h183l307 -952l303 952h152l-373 -1085h-168l-311 967l-304 -967h-172z" />
    <glyph glyph-name="x" unicode="x" horiz-adv-x="1159" 
d="M178 0h-174l492 578l-433 507h183l342 -407l334 407h184l-430 -512l479 -573h-168l-403 471z" />
    <glyph glyph-name="y" unicode="y" horiz-adv-x="1104" 
d="M553 -131q-75 -164 -149 -212t-205 -48q-25 0 -54.5 5t-68.5 15v135q45 -9 79.5 -13.5t59.5 -4.5q82 0 135.5 51t120.5 207l-496 1081h164l406 -940l409 940h158z" />
    <glyph glyph-name="z" unicode="z" horiz-adv-x="1151" 
d="M66 0v141l819 811h-781v133h953v-137l-817 -811h845v-137h-1019z" />
    <glyph glyph-name="braceleft" unicode="{" horiz-adv-x="1024" 
d="M854 1370h-37q-131 0 -177 -49.5t-46 -204.5v-242q0 -168 -43.5 -240t-153.5 -104q110 -31 153.5 -103t43.5 -241v-241q0 -155 45 -204.5t170 -49.5q7 0 22 1t23 1v-107h-47q-197 0 -266.5 72.5t-69.5 296.5v244q0 154 -57 217t-195 63q-7 0 -21.5 -1t-23.5 -1v109
q9 0 23.5 -1t21.5 -1q138 0 195 63t57 217v242q0 223 70 297t266 74h47v-107z" />
    <glyph glyph-name="bar" unicode="|" horiz-adv-x="1024" 
d="M567 1565v-2048h-108v2048h108z" />
    <glyph glyph-name="braceright" unicode="}" horiz-adv-x="1024" 
d="M555 1106v-242q0 -154 57 -217t195 -63q7 0 22 1t23 1v-109q-8 0 -23 1t-22 1q-138 0 -195 -63t-57 -217v-244q0 -223 -69.5 -296t-266.5 -73h-47v107h39q130 0 175.5 49t45.5 203v241q0 171 43 242t154 102q-111 32 -154 103t-43 241v242q0 157 -45 206.5t-170 49.5
q-7 0 -22 -1t-23 -1v107h47q196 0 266 -74t70 -297z" />
    <glyph glyph-name="asciitilde" unicode="~" horiz-adv-x="1706" 
d="M1530 637q-102 -72 -198 -107.5t-189 -35.5q-99 0 -260 57q-20 7 -29 10q-5 2 -16 6q-176 64 -273 64q-83 0 -175 -38t-212 -122v113q106 73 202 109t185 36q104 0 272 -61q11 -4 18 -7q9 -3 31 -11q167 -60 257 -60q85 0 177 38t210 122v-113z" />
    <glyph glyph-name="nonbreakingspace" unicode="&#xa0;" 
 />
    <glyph glyph-name="exclamdown" unicode="&#xa1;" horiz-adv-x="639" 
d="M367 1133l36 -1133h-165l36 1133h93zM321 1280q-40 0 -68.5 29t-28.5 70q0 42 28.5 71t68.5 29t68.5 -29t28.5 -71q0 -41 -28.5 -70t-68.5 -29z" />
    <glyph glyph-name="cent" unicode="&#xa2;" 
d="M604 139v885q-173 -20 -274 -139.5t-101 -304.5q0 -186 101.5 -305t273.5 -136zM1051 432h145q-25 -184 -154 -298t-337 -134v-227h-101v227q-237 20 -378.5 178t-141.5 402q0 242 141 399t379 178v186h101v-184q195 -13 324.5 -120t156.5 -275h-148q-28 112 -116 180.5
t-217 79.5v-885q137 11 227.5 87.5t118.5 205.5z" />
    <glyph glyph-name="sterling" unicode="&#xa3;" 
d="M160 -31l-78 133q116 72 170.5 153.5t54.5 184.5q0 49 -12 100t-37 107h-197v109h158q-35 85 -52 156.5t-17 127.5q0 194 152 317.5t394 123.5q257 0 404 -127.5t147 -347.5v-17h-136q-6 173 -112 265t-301 92q-181 0 -290 -86t-109 -228q0 -54 16 -115t58 -161h469v-109
h-426q18 -55 27.5 -102.5t9.5 -87.5q0 -94 -42.5 -170t-148.5 -166q68 26 122 38.5t101 12.5q60 0 199.5 -36t218.5 -36q76 0 155 27.5t159 81.5l57 -125q-80 -61 -170 -92t-191 -31t-265.5 42t-227.5 42q-66 0 -130 -18.5t-130 -57.5z" />
    <glyph glyph-name="currency" unicode="&#xa4;" horiz-adv-x="1241" 
d="M944 887q0 133 -94 227t-227 94q-134 0 -230 -94.5t-96 -226.5q0 -134 96 -230t230 -96q133 0 227 96t94 230zM360 1210q60 46 124.5 68t136.5 22t138.5 -22.5t123.5 -67.5l204 205l66 -65l-205 -205q44 -59 66 -125t22 -135t-22 -134t-66 -124l205 -207l-66 -66
l-204 205q-59 -45 -125 -67.5t-137 -22.5t-135 22t-126 68l-204 -205l-66 66l205 207q-45 61 -67.5 125.5t-22.5 132.5t22.5 133.5t67.5 126.5l-205 205l66 65z" />
    <glyph glyph-name="yen" unicode="&#xa5;" 
d="M590 0v627h-545v84h481l-131 172h-350v84h287l-361 475h183l510 -709l514 709h178l-363 -475h289v-84h-352l-135 -172h487v-84h-549v-627h-143z" />
    <glyph glyph-name="brokenbar" unicode="&#xa6;" horiz-adv-x="1024" 
d="M567 408v-758h-108v758h108zM567 1432v-758h-108v758h108z" />
    <glyph glyph-name="section" unicode="&#xa7;" 
d="M932 311q91 38 132.5 89t41.5 124q0 77 -44 124t-157 85l-522 180q-81 -51 -118.5 -104.5t-37.5 -118.5q0 -72 40 -115t149 -81zM164 45h141q2 -130 88 -192t266 -62q166 0 252 55t86 160q0 41 -9.5 73t-29.5 54q-28 34 -259 114q-66 23 -104 36q-5 2 -14 5
q-330 116 -382 158q-58 46 -86.5 101.5t-28.5 122.5q0 99 56 174.5t163 120.5q-57 46 -85 101t-28 122q0 149 123.5 239.5t331.5 90.5q226 0 346.5 -95t120.5 -272v-8h-139v4q0 120 -85 183t-249 63q-148 0 -223.5 -51t-75.5 -150q0 -56 23.5 -89t99.5 -67q8 -3 81.5 -29
t213.5 -75q21 -8 62 -22q250 -86 290 -115q71 -52 103 -112.5t32 -145.5q0 -100 -51.5 -169.5t-161.5 -117.5q55 -38 82 -96t27 -138q0 -167 -129.5 -261.5t-360.5 -94.5t-358 100t-129 285z" />
    <glyph glyph-name="dieresis" unicode="&#xa8;" horiz-adv-x="1024" 
d="M705 1303v167h141v-167h-141zM178 1303v167h141v-167h-141z" />
    <glyph glyph-name="copyright" unicode="&#xa9;" horiz-adv-x="1706" 
d="M1073 915q-18 80 -75 124t-142 44q-122 0 -190 -95t-68 -267q0 -166 69 -260t189 -94q89 0 151 50.5t78 137.5h115q-11 -125 -108.5 -205t-241.5 -80q-177 0 -279 122t-102 335q0 203 107.5 326t283.5 123q135 0 226.5 -72t103.5 -189h-117zM1505 723q0 132 -48.5 251
t-139.5 210q-94 94 -213 143t-252 49q-132 0 -249 -48t-208 -140q-94 -96 -144 -215.5t-50 -249.5q0 -129 49.5 -247t142.5 -212q94 -93 212 -142.5t247 -49.5q130 0 250.5 50t216.5 144q91 89 138.5 206t47.5 251zM852 1456q149 0 283.5 -55.5t238.5 -159.5
q102 -102 156.5 -235.5t54.5 -282.5q0 -150 -53.5 -281t-157.5 -233q-107 -106 -242 -162.5t-280 -56.5t-278 55.5t-238 161.5q-105 104 -160 237t-55 279q0 145 56.5 279.5t162.5 242.5q101 103 232 157t280 54z" />
    <glyph glyph-name="ordfeminine" unicode="&#xaa;" horiz-adv-x="995" 
d="M944 815v-86q-25 -7 -47 -10.5t-41 -3.5q-54 0 -78.5 27t-30.5 93q-66 -71 -149 -103t-201 -32q-147 0 -227 59.5t-80 168.5q0 51 21.5 92t64.5 70q34 24 92.5 39.5t196.5 31.5q30 4 83 11q200 23 200 108q0 62 -58.5 94.5t-169.5 32.5q-138 0 -211 -44.5t-78 -131.5
h-106q10 134 105 200t278 66q116 0 187.5 -22t113.5 -70q24 -28 34.5 -65.5t10.5 -118.5v-336q0 -51 10 -64.5t35 -13.5q11 0 22 2t23 6zM748 1130q-33 -16 -97 -29.5t-186 -29.5q-178 -26 -223 -56t-45 -89q0 -62 56.5 -98.5t154.5 -36.5q151 0 245.5 66t94.5 171v102z" />
    <glyph glyph-name="guillemotleft" unicode="&#xab;" horiz-adv-x="1067" 
d="M129 643l358 272v-161l-276 -211l276 -211v-162l-358 272v201zM559 643l361 272v-161l-277 -211l277 -211v-162l-361 272v201z" />
    <glyph glyph-name="logicalnot" unicode="&#xac;" horiz-adv-x="1706" 
d="M1452 858v-502h-96v402h-1102v100h1198z" />
    <glyph glyph-name="sfthyphen" unicode="&#xad;" horiz-adv-x="948" 
d="M113 477v131h723v-131h-723z" />
    <glyph glyph-name="registered" unicode="&#xae;" horiz-adv-x="1706" 
d="M850 1071h-158v-303h158q134 0 188 33.5t54 113.5q0 83 -57 119.5t-185 36.5zM874 1157q178 0 263.5 -57t85.5 -176q0 -89 -54 -149t-145 -73l188 -389h-145l-178 371h-197v-371h-127v844h309zM1505 721q0 134 -48 253t-138 210q-94 93 -213.5 142.5t-253.5 49.5
q-130 0 -246.5 -48t-208.5 -140q-95 -97 -145.5 -216.5t-50.5 -248.5t49.5 -247t142.5 -212q94 -93 212 -142.5t247 -49.5q130 0 250.5 50t216.5 144q91 89 138.5 204.5t47.5 250.5zM852 1456q152 0 285.5 -55t236.5 -160q102 -102 156.5 -235.5t54.5 -282.5
q0 -150 -53.5 -281t-157.5 -233q-107 -106 -242 -162.5t-280 -56.5q-147 0 -279.5 55.5t-236.5 161.5q-105 104 -160 237t-55 279q0 144 56.5 279.5t162.5 242.5q101 103 232 157t280 54z" />
    <glyph glyph-name="macron" unicode="&#xaf;" horiz-adv-x="1024" 
d="M127 1325v123h768v-123h-768z" />
    <glyph glyph-name="degree" unicode="&#xb0;" horiz-adv-x="674" 
d="M545 1174q0 86 -60.5 147t-146.5 61t-147.5 -61t-61.5 -147q0 -87 61 -147t148 -60t147 60t60 147zM338 1452q115 0 195.5 -81.5t80.5 -196.5t-81.5 -197t-196.5 -82q-117 0 -197 81t-80 198q0 116 81.5 197t197.5 81z" />
    <glyph glyph-name="plusminus" unicode="&#xb1;" horiz-adv-x="1706" 
d="M1452 150v-99h-1198v99h1198zM903 1169v-348h549v-98h-549v-348h-98v348h-551v98h551v348h98z" />
    <glyph glyph-name="twosuperior" unicode="&#xb2;" horiz-adv-x="877" 
d="M66 575v5q0 65 24 118.5t76 102.5q24 25 81.5 59.5t188.5 100.5q24 12 67 34q98 49 122 70q35 30 50 60.5t15 74.5q0 85 -65 133.5t-179 48.5q-132 0 -203 -59.5t-71 -171.5h-92v6q0 142 97 224.5t265 82.5q159 0 251.5 -72t92.5 -194q0 -86 -49.5 -145.5t-236.5 -155.5
q-203 -102 -262 -148t-64 -87h604v-87h-712z" />
    <glyph glyph-name="threesuperior" unicode="&#xb3;" horiz-adv-x="877" 
d="M66 850h99q4 -105 73.5 -159t201.5 -54q130 0 198.5 47.5t68.5 138.5q0 89 -69 127.5t-230 38.5h-35v80h22q143 0 208 37t65 119q0 80 -58.5 119.5t-175.5 39.5q-109 0 -172.5 -57t-64.5 -155h-99q10 143 97 216.5t245 73.5q156 0 241 -60t85 -169q0 -78 -42.5 -129
t-121.5 -70q96 -10 149.5 -65.5t53.5 -145.5q0 -129 -95 -199.5t-268 -70.5q-179 0 -276 76.5t-100 220.5z" />
    <glyph glyph-name="acute" unicode="&#xb4;" horiz-adv-x="1024" 
d="M393 1235l176 303h187l-242 -303h-121z" />
    <glyph glyph-name="mu" unicode="&#xb5;" horiz-adv-x="1110" 
d="M344 1065l-125 -592q-8 -39 -12 -73t-4 -66q0 -117 58 -180.5t167 -63.5q125 0 215 107.5t133 310.5l121 557h139l-164 -770q-12 -55 -17 -85t-5 -48q0 -33 17 -49.5t51 -16.5q7 0 16.5 0.5t19.5 1.5l-20 -110q-19 -5 -41 -8t-45 -3q-70 0 -103.5 36t-33.5 110v14
q-42 -77 -120 -119.5t-179 -42.5q-92 0 -161 40t-108 116l-114 -557h-140l316 1491h139z" />
    <glyph glyph-name="paragraph" unicode="&#xb6;" horiz-adv-x="1024" 
d="M940 1409h-127v-1409h-82v1409h-186v-1409h-84v782q-174 8 -275.5 102.5t-101.5 245.5q0 157 107.5 253t285.5 96h463v-70z" />
    <glyph glyph-name="glyph195" unicode="&#xb7;" horiz-adv-x="664" 
d="M225 721q0 44 31 74t76 30t75.5 -30t30.5 -74q0 -45 -31 -76t-75 -31q-45 0 -76 31t-31 76z" />
    <glyph glyph-name="cedilla" unicode="&#xb8;" horiz-adv-x="1024" 
d="M289 -401l24 65q64 -18 116.5 -27.5t94.5 -9.5q72 0 108 24.5t36 72.5q0 39 -24.5 59t-72.5 20q-17 0 -39.5 -3.5t-72.5 -14.5l-41 31l104 184h80l-72 -127q21 6 43.5 9t42.5 3q87 0 135 -43t48 -121q0 -82 -62.5 -128t-175.5 -46q-55 0 -124 13t-148 39z" />
    <glyph glyph-name="onesuperior" unicode="&#xb9;" horiz-adv-x="877" 
d="M428 575v650h-289v73h97q113 0 160 37.5t49 126.5h77v-887h-94z" />
    <glyph glyph-name="ordmasculine" unicode="&#xba;" horiz-adv-x="995" 
d="M172 1100q0 -143 88.5 -227.5t237.5 -84.5t237 84.5t88 227.5q0 141 -88 225t-237 84t-237.5 -84t-88.5 -225zM63 1100q0 181 120 293t315 112t315.5 -112t120.5 -293q0 -183 -120.5 -295.5t-315.5 -112.5t-315 112.5t-120 295.5z" />
    <glyph glyph-name="guillemotright" unicode="&#xbb;" horiz-adv-x="1067" 
d="M938 442l-358 -272v162l276 211l-276 211v161l358 -272v-201zM506 442l-359 -272v162l277 211l-277 211v161l359 -272v-201z" />
    <glyph glyph-name="onequarter" unicode="&#xbc;" horiz-adv-x="2099" 
d="M1792 285v428l-389 -428h389zM1792 0v209h-479v82l483 534h86v-540h160v-76h-160v-209h-90zM410 -39l1146 1518h134l-1149 -1518h-131zM408 633v606h-275v68h92q107 0 152 34.5t47 118.5h74v-827h-90z" />
    <glyph glyph-name="onehalf" unicode="&#xbd;" horiz-adv-x="2099" 
d="M1325 0v4q0 61 22.5 111t71.5 96q23 21 73.5 50.5t184.5 96.5q27 14 73 37q86 43 108 62q34 28 47.5 55.5t13.5 69.5q0 79 -61.5 124.5t-169.5 45.5q-126 0 -193.5 -55t-67.5 -158h-90v4q0 133 93.5 209.5t255.5 76.5q150 0 238.5 -67.5t88.5 -181.5q0 -81 -49 -137
t-225 -142q-197 -98 -252 -140.5t-59 -80.5h577v-80h-680zM410 -39l1146 1518h134l-1149 -1518h-131zM408 633v606h-275v68h92q107 0 152 34.5t47 118.5h74v-827h-90z" />
    <glyph glyph-name="threequarters" unicode="&#xbe;" horiz-adv-x="2097" 
d="M1792 285v428l-389 -428h389zM1792 0v209h-479v82l483 534h86v-540h160v-76h-160v-209h-90zM410 -39l1146 1518h134l-1149 -1518h-131zM64 889h93q4 -98 70.5 -148.5t192.5 -50.5q124 0 189 44.5t65 129.5q0 84 -65.5 120t-219.5 36h-35v74h23q137 0 198.5 34.5
t61.5 110.5q0 74 -56 112t-167 38q-105 0 -164.5 -52.5t-63.5 -146.5h-94q11 133 94.5 201.5t233.5 68.5q149 0 230 -55.5t81 -157.5q0 -73 -40.5 -121t-116.5 -65q91 -9 142.5 -61t51.5 -136q0 -120 -91 -187t-255 -67q-171 0 -264 72.5t-94 206.5z" />
    <glyph glyph-name="questiondown" unicode="&#xbf;" horiz-adv-x="1200" 
d="M678 1162v-120q0 -201 -236.5 -347t-236.5 -274q0 -140 97 -211.5t264 -71.5q169 0 269.5 74.5t100.5 195.5h154q0 -189 -138.5 -298.5t-379.5 -109.5q-242 0 -383.5 110t-141.5 313q0 198 232.5 332.5t232.5 273.5v133h166zM526.5 1348q-28.5 29 -28.5 70q0 42 28.5 71
t68.5 29t68.5 -29t28.5 -71q0 -41 -28.5 -70t-68.5 -29t-68.5 29z" />
    <glyph glyph-name="Agrave" unicode="&#xc0;" horiz-adv-x="1561" 
d="M442 600h678l-338 756zM16 0l682 1479h170l674 -1479h-149l-207 457h-809l-209 -457h-152zM795 1628l-242 303h187l176 -303h-121z" />
    <glyph glyph-name="Aacute" unicode="&#xc1;" horiz-adv-x="1561" 
d="M442 600h678l-338 756zM16 0l682 1479h170l674 -1479h-149l-207 457h-809l-209 -457h-152zM678 1628l176 303h187l-242 -303h-121z" />
    <glyph glyph-name="Acircumflex" unicode="&#xc2;" horiz-adv-x="1561" 
d="M442 600h678l-338 756zM16 0l682 1479h170l674 -1479h-149l-207 457h-809l-209 -457h-152zM797 1845l-211 -217h-158l285 303h168l285 -303h-158z" />
    <glyph glyph-name="Atilde" unicode="&#xc3;" horiz-adv-x="1561" 
d="M442 600h678l-338 756zM16 0l682 1479h170l674 -1479h-149l-207 457h-809l-209 -457h-152zM742 1745q-9 4 -23 11q-58 30 -94 30q-48 0 -77 -31.5t-40 -95.5h-98q12 112 70.5 175.5t148.5 63.5q29 0 59 -8t70 -29l92 -47q9 -4 25 -12q59 -31 94 -31q48 0 77 32.5t40 96.5
h98q-12 -112 -70.5 -176.5t-148.5 -64.5q-27 0 -56 8t-73 31z" />
    <glyph glyph-name="Adieresis" unicode="&#xc4;" horiz-adv-x="1561" 
d="M442 600h678l-338 756zM16 0l682 1479h170l674 -1479h-149l-207 457h-809l-209 -457h-152zM990 1696v167h141v-167h-141zM463 1696v167h141v-167h-141z" />
    <glyph glyph-name="Aring" unicode="&#xc5;" horiz-adv-x="1561" 
d="M655 1745q0 -53 35 -85t92 -32q58 0 93.5 32t35.5 85t-35 85t-94 32t-93 -31.5t-34 -85.5zM553 1745q0 92 62 145.5t169 53.5t168.5 -53.5t61.5 -145.5q0 -93 -61.5 -146t-168.5 -53t-169 53.5t-62 145.5zM442 600h678l-338 756zM16 0l682 1479h170l674 -1479h-149
l-207 457h-809l-209 -457h-152z" />
    <glyph glyph-name="AE" unicode="&#xc6;" horiz-adv-x="2353" 
d="M8 0l807 1479h1440v-138h-989v-518h913v-139h-913v-545h989v-139h-1135v457h-690l-258 -457h-164zM508 600h600v746h-195z" />
    <glyph glyph-name="Ccedilla" unicode="&#xc7;" horiz-adv-x="1659" 
d="M819 -35q-267 26 -481 224q-248 228 -248 550q0 323 232.5 551t569.5 228q267 0 421 -89v-174q-149 119 -427 119q-279 0 -462.5 -186t-183.5 -449t203.5 -449t452.5 -186q268 0 417 119v-173q-154 -89 -411 -89h-5l-50 -88q21 6 43.5 9t42.5 3q87 0 135 -43t48 -121
q0 -82 -62.5 -128t-175.5 -46q-55 0 -124 13t-148 39l24 65q64 -18 116.5 -27.5t94.5 -9.5q72 0 108 24.5t36 72.5q0 39 -24.5 59t-72.5 20q-17 0 -39.5 -3.5t-72.5 -14.5l-41 31z" />
    <glyph glyph-name="Egrave" unicode="&#xc8;" horiz-adv-x="1407" 
d="M174 0v1479h1137v-138h-989v-518h913v-139h-913v-545h989v-139h-1137zM739 1628l-242 303h187l176 -303h-121z" />
    <glyph glyph-name="Eacute" unicode="&#xc9;" horiz-adv-x="1407" 
d="M174 0v1479h1137v-138h-989v-518h913v-139h-913v-545h989v-139h-1137zM622 1628l176 303h187l-242 -303h-121z" />
    <glyph glyph-name="Ecircumflex" unicode="&#xca;" horiz-adv-x="1407" 
d="M174 0v1479h1137v-138h-989v-518h913v-139h-913v-545h989v-139h-1137zM741 1845l-211 -217h-158l285 303h168l285 -303h-158z" />
    <glyph glyph-name="Edieresis" unicode="&#xcb;" horiz-adv-x="1407" 
d="M174 0v1479h1137v-138h-989v-518h913v-139h-913v-545h989v-139h-1137zM934 1696v167h141v-167h-141zM407 1696v167h141v-167h-141z" />
    <glyph glyph-name="Igrave" unicode="&#xcc;" horiz-adv-x="516" 
d="M184 0v1479h148v-1479h-148zM256 1628l-242 303h187l176 -303h-121z" />
    <glyph glyph-name="Iacute" unicode="&#xcd;" horiz-adv-x="516" 
d="M184 0v1479h148v-1479h-148zM139 1628l176 303h187l-242 -303h-121z" />
    <glyph glyph-name="Icircumflex" unicode="&#xce;" horiz-adv-x="516" 
d="M184 0v1479h148v-1479h-148zM258 1845l-211 -217h-158l285 303h168l285 -303h-158z" />
    <glyph glyph-name="Idieresis" unicode="&#xcf;" horiz-adv-x="516" 
d="M184 0v1479h148v-1479h-148zM451 1696v167h141v-167h-141zM-76 1696v167h141v-167h-141z" />
    <glyph glyph-name="Eth" unicode="&#xd0;" horiz-adv-x="1669" 
d="M332 141h389q195 0 303 22t184 73q107 70 157 194.5t50 319.5q0 185 -51 309t-156 194q-76 50 -186.5 71.5t-333.5 21.5h-356v-502h524v-109h-524v-594zM184 0v735h-184v109h184v635h537q251 0 382 -30.5t226 -100.5q121 -96 179.5 -246.5t58.5 -362.5q0 -213 -59 -362.5
t-181 -243.5q-93 -72 -223.5 -102.5t-382.5 -30.5h-537z" />
    <glyph glyph-name="Ntilde" unicode="&#xd1;" horiz-adv-x="1716" 
d="M174 0v1479h188l1035 -1327v1327h143v-1479h-197l-1026 1327v-1327h-143zM803 1745q-9 4 -23 11q-58 30 -94 30q-48 0 -77 -31.5t-40 -95.5h-98q12 112 70.5 175.5t148.5 63.5q29 0 59 -8t70 -29l92 -47q9 -4 25 -12q59 -31 94 -31q48 0 77 32.5t40 96.5h98
q-12 -112 -70.5 -176.5t-148.5 -64.5q-27 0 -56 8t-73 31z" />
    <glyph glyph-name="Ograve" unicode="&#xd2;" horiz-adv-x="1759" 
d="M1429.5 1290q227.5 -228 227.5 -551q0 -322 -227.5 -550t-550.5 -228q-322 0 -549.5 228t-227.5 550q0 323 227.5 551t549.5 228q323 0 550.5 -228zM879 1374q-260 0 -443.5 -186t-183.5 -449t183.5 -449t443.5 -186q259 0 442.5 186t183.5 449t-183.5 449t-442.5 186z
M879 1628l-242 303h187l176 -303h-121z" />
    <glyph glyph-name="Oacute" unicode="&#xd3;" horiz-adv-x="1759" 
d="M1429.5 1290q227.5 -228 227.5 -551q0 -322 -227.5 -550t-550.5 -228q-322 0 -549.5 228t-227.5 550q0 323 227.5 551t549.5 228q323 0 550.5 -228zM879 1374q-260 0 -443.5 -186t-183.5 -449t183.5 -449t443.5 -186q259 0 442.5 186t183.5 449t-183.5 449t-442.5 186z
M762 1628l176 303h187l-242 -303h-121z" />
    <glyph glyph-name="Ocircumflex" unicode="&#xd4;" horiz-adv-x="1759" 
d="M1429.5 1290q227.5 -228 227.5 -551q0 -322 -227.5 -550t-550.5 -228q-322 0 -549.5 228t-227.5 550q0 323 227.5 551t549.5 228q323 0 550.5 -228zM879 1374q-260 0 -443.5 -186t-183.5 -449t183.5 -449t443.5 -186q259 0 442.5 186t183.5 449t-183.5 449t-442.5 186z
M881 1845l-211 -217h-158l285 303h168l285 -303h-158z" />
    <glyph glyph-name="Otilde" unicode="&#xd5;" horiz-adv-x="1759" 
d="M1429.5 1290q227.5 -228 227.5 -551q0 -322 -227.5 -550t-550.5 -228q-322 0 -549.5 228t-227.5 550q0 323 227.5 551t549.5 228q323 0 550.5 -228zM879 1374q-260 0 -443.5 -186t-183.5 -449t183.5 -449t443.5 -186q259 0 442.5 186t183.5 449t-183.5 449t-442.5 186z
M826 1745q-9 4 -23 11q-58 30 -94 30q-48 0 -77 -31.5t-40 -95.5h-98q12 112 70.5 175.5t148.5 63.5q29 0 59 -8t70 -29l92 -47q9 -4 25 -12q59 -31 94 -31q48 0 77 32.5t40 96.5h98q-12 -112 -70.5 -176.5t-148.5 -64.5q-27 0 -56 8t-73 31z" />
    <glyph glyph-name="Odieresis" unicode="&#xd6;" horiz-adv-x="1759" 
d="M1429.5 1290q227.5 -228 227.5 -551q0 -322 -227.5 -550t-550.5 -228q-322 0 -549.5 228t-227.5 550q0 323 227.5 551t549.5 228q323 0 550.5 -228zM879 1374q-260 0 -443.5 -186t-183.5 -449t183.5 -449t443.5 -186q259 0 442.5 186t183.5 449t-183.5 449t-442.5 186z
M1074 1696v167h141v-167h-141zM547 1696v167h141v-167h-141z" />
    <glyph glyph-name="multiply" unicode="&#xd7;" horiz-adv-x="1706" 
d="M856 680l481 481l70 -69l-481 -482l481 -481l-70 -70l-481 482l-481 -482l-70 70l481 481l-481 482l70 69z" />
    <glyph glyph-name="Oslash" unicode="&#xd8;" horiz-adv-x="1759" 
d="M397 301l920 922q-79 75 -189 113t-249 38q-294 0 -460.5 -168.5t-166.5 -466.5q0 -142 34.5 -246t110.5 -192zM96 0l195 199q-94 95 -141.5 231t-47.5 309q0 363 207 571t570 208q174 0 310.5 -47.5t233.5 -141.5l179 180l61 -57l-178 -182q84 -105 128 -239.5
t44 -291.5q0 -365 -208.5 -571.5t-578.5 -206.5q-156 0 -281 42t-243 134l-190 -192zM1372 1159l-921 -917q85 -69 192.5 -103.5t235.5 -34.5q289 0 457.5 167.5t168.5 455.5q0 136 -33 244t-100 188z" />
    <glyph glyph-name="Ugrave" unicode="&#xd9;" horiz-adv-x="1640" 
d="M176 1479h150v-908q0 -242 119 -354.5t374 -112.5q256 0 376 113t120 354v908h149v-947q0 -276 -166.5 -423.5t-478.5 -147.5q-315 0 -479 147t-164 431v940zM819 1628l-242 303h187l176 -303h-121z" />
    <glyph glyph-name="Uacute" unicode="&#xda;" horiz-adv-x="1640" 
d="M176 1479h150v-908q0 -242 119 -354.5t374 -112.5q256 0 376 113t120 354v908h149v-947q0 -276 -166.5 -423.5t-478.5 -147.5q-315 0 -479 147t-164 431v940zM702 1628l176 303h187l-242 -303h-121z" />
    <glyph glyph-name="Ucircumflex" unicode="&#xdb;" horiz-adv-x="1640" 
d="M176 1479h150v-908q0 -242 119 -354.5t374 -112.5q256 0 376 113t120 354v908h149v-947q0 -276 -166.5 -423.5t-478.5 -147.5q-315 0 -479 147t-164 431v940zM821 1845l-211 -217h-158l285 303h168l285 -303h-158z" />
    <glyph glyph-name="Udieresis" unicode="&#xdc;" horiz-adv-x="1640" 
d="M176 1479h150v-908q0 -242 119 -354.5t374 -112.5q256 0 376 113t120 354v908h149v-947q0 -276 -166.5 -423.5t-478.5 -147.5q-315 0 -479 147t-164 431v940zM1014 1696v167h141v-167h-141zM487 1696v167h141v-167h-141z" />
    <glyph glyph-name="Yacute" unicode="&#xdd;" horiz-adv-x="1473" 
d="M662 0v639l-637 840h188l522 -721l529 721h182l-637 -840v-639h-147zM618 1628l176 303h187l-242 -303h-121z" />
    <glyph glyph-name="Thorn" unicode="&#xde;" horiz-adv-x="1407" 
d="M322 461h428q235 0 325 66t90 229q0 162 -90 228.5t-325 66.5h-428v-590zM174 0v1479h148v-289h454q277 0 411 -107.5t134 -328.5q0 -222 -134 -329.5t-411 -107.5h-454v-317h-148z" />
    <glyph glyph-name="germandbls" unicode="&#xdf;" horiz-adv-x="1264" 
d="M168 0v1016q0 253 110 358t371 105q223 0 351 -101t128 -274q0 -104 -59.5 -182t-169.5 -115q147 -31 220 -122.5t73 -244.5q0 -214 -137 -335t-379 -121q-41 0 -82 4t-82 12v131q60 -8 103 -12t71 -4q170 0 266.5 87.5t96.5 241.5q0 153 -108 223t-343 70
q-34 0 -52 -0.5t-34 -0.5v126q12 0 36.5 -1t37.5 -1q210 0 303.5 58t93.5 188q0 118 -85.5 181t-246.5 63q-186 0 -263 -75t-77 -259v-1016h-143z" />
    <glyph glyph-name="agrave" unicode="&#xe0;" 
d="M257 542q0 -183 127.5 -312.5t307.5 -129.5t307 129.5t127 312.5q0 184 -127 313.5t-307 129.5t-307.5 -129.5t-127.5 -313.5zM1126 0v157q-12 -13 -25 -26q-170 -170 -411 -170q-240 0 -410 170t-170 411t170 411.5t410 170.5q241 0 411 -170.5t170 -411.5v-542h-145z
M692 1235l-242 303h187l176 -303h-121z" />
    <glyph glyph-name="aacute" unicode="&#xe1;" 
d="M257 542q0 -183 127.5 -312.5t307.5 -129.5t307 129.5t127 312.5q0 184 -127 313.5t-307 129.5t-307.5 -129.5t-127.5 -313.5zM1126 0v157q-12 -13 -25 -26q-170 -170 -411 -170q-240 0 -410 170t-170 411t170 411.5t410 170.5q241 0 411 -170.5t170 -411.5v-542h-145z
M575 1235l176 303h187l-242 -303h-121z" />
    <glyph glyph-name="acircumflex" unicode="&#xe2;" 
d="M257 542q0 -183 127.5 -312.5t307.5 -129.5t307 129.5t127 312.5q0 184 -127 313.5t-307 129.5t-307.5 -129.5t-127.5 -313.5zM1126 0v157q-12 -13 -25 -26q-170 -170 -411 -170q-240 0 -410 170t-170 411t170 411.5t410 170.5q241 0 411 -170.5t170 -411.5v-542h-145z
M694 1452l-211 -217h-158l285 303h168l285 -303h-158z" />
    <glyph glyph-name="atilde" unicode="&#xe3;" 
d="M257 542q0 -183 127.5 -312.5t307.5 -129.5t307 129.5t127 312.5q0 184 -127 313.5t-307 129.5t-307.5 -129.5t-127.5 -313.5zM1126 0v157q-12 -13 -25 -26q-170 -170 -411 -170q-240 0 -410 170t-170 411t170 411.5t410 170.5q241 0 411 -170.5t170 -411.5v-542h-145z
M639 1352q-9 4 -23 11q-58 30 -94 30q-48 0 -77 -31.5t-40 -95.5h-98q12 112 70.5 175.5t148.5 63.5q29 0 59 -8t70 -29l92 -47q9 -4 25 -12q59 -31 94 -31q48 0 77 32.5t40 96.5h98q-12 -112 -70.5 -176.5t-148.5 -64.5q-27 0 -56 8t-73 31z" />
    <glyph glyph-name="adieresis" unicode="&#xe4;" 
d="M257 542q0 -183 127.5 -312.5t307.5 -129.5t307 129.5t127 312.5q0 184 -127 313.5t-307 129.5t-307.5 -129.5t-127.5 -313.5zM1126 0v157q-12 -13 -25 -26q-170 -170 -411 -170q-240 0 -410 170t-170 411t170 411.5t410 170.5q241 0 411 -170.5t170 -411.5v-542h-145z
M887 1303v167h141v-167h-141zM360 1303v167h141v-167h-141z" />
    <glyph glyph-name="aring" unicode="&#xe5;" 
d="M565 1389q0 -53 35 -85t92 -32q58 0 93.5 32t35.5 85t-35 84.5t-94 31.5t-93 -31t-34 -85zM463 1389q0 92 62 145t169 53t168.5 -53t61.5 -145q0 -93 -61.5 -146t-168.5 -53t-169 53t-62 146zM995 588q-39 -22 -117.5 -40.5t-256.5 -45.5q-235 -37 -297 -79.5t-62 -127.5
q0 -88 76 -140.5t205 -52.5q201 0 326.5 94t125.5 244v148zM1259 137l1 -123q-33 -10 -62.5 -15t-56.5 -5q-72 0 -105 38.5t-41 133.5q-89 -101 -199 -147t-266 -46q-197 0 -304 85t-107 241q0 72 28.5 130t85.5 101q45 33 122 55t263 48q41 5 112 14q265 32 265 154
q0 89 -76.5 135.5t-224.5 46.5q-186 0 -282.5 -63t-104.5 -189h-141q12 191 139.5 286t370.5 95q155 0 250 -31t149 -98q35 -43 49.5 -98t14.5 -168v-481q0 -72 13 -90.5t46 -18.5q15 0 30.5 2.5t30.5 7.5z" />
    <glyph glyph-name="ae" unicode="&#xe6;" horiz-adv-x="2165" 
d="M1085 631h834q-6 159 -120.5 258.5t-291.5 99.5q-173 0 -290.5 -99.5t-131.5 -258.5zM940 580q-39 -22 -117.5 -40.5t-259.5 -45.5q-234 -37 -296 -79.5t-62 -127.5q0 -88 76.5 -140.5t205.5 -52.5q206 0 329.5 93.5t123.5 248.5v144zM1018 217q-94 -130 -228.5 -193
t-320.5 -63q-195 0 -302.5 86.5t-107.5 241.5q0 72 29 130t86 101q45 33 121.5 55t263.5 48q41 5 111 14q266 32 266 154q0 89 -76 134.5t-225 45.5q-186 0 -283 -63t-104 -189h-139q12 191 139 287t368 96q180 0 283.5 -43.5t151.5 -138.5q88 105 199 154.5t257 49.5
q263 0 420.5 -158.5t157.5 -424.5v-29h-1004q12 -193 123 -303.5t291 -110.5q140 0 237 64.5t136 183.5h162q-43 -174 -186.5 -279.5t-336.5 -105.5q-167 0 -293.5 66.5t-195.5 189.5z" />
    <glyph glyph-name="ccedilla" unicode="&#xe7;" horiz-adv-x="1251" 
d="M642 -38q-249 14 -404 169q-170 170 -170 411t170 411.5t451 170.5q212 0 362 -98v-156q-144 115 -364 115t-347 -129.5t-127 -313.5q0 -183 127 -312.5t347 -129.5t364 116v-158q-138 -90 -330 -96l-50 -89q21 6 43.5 9t42.5 3q87 0 135 -43t48 -121q0 -82 -62.5 -128
t-175.5 -46q-55 0 -124 13t-148 39l24 65q64 -18 116.5 -27.5t94.5 -9.5q72 0 108 24.5t36 72.5q0 39 -24.5 59t-72.5 20q-17 0 -39.5 -3.5t-72.5 -14.5l-41 31z" />
    <glyph glyph-name="egrave" unicode="&#xe8;" horiz-adv-x="1319" 
d="M1090 621q-24 138 -119 235q-128 129 -308 129t-307 -129q-95 -97 -119 -225q97 25 200 25q111 0 229 -29q119 -29 231 -29q100 0 193 23zM1245 502q-170 -32 -318 -32q-135 0 -252 27q-129 29 -246 29q-105 0 -199 -24q10 -154 126 -272q127 -130 307 -130t308 130
q52 53 83 116h159q-42 -119 -138 -215q-170 -170 -410 -170q-241 0 -411 170t-170 411t170 411.5t411 170.5q240 0 410 -170.5t170 -451.5zM678 1235l-242 303h187l176 -303h-121z" />
    <glyph glyph-name="eacute" unicode="&#xe9;" horiz-adv-x="1319" 
d="M1090 621q-24 138 -119 235q-128 129 -308 129t-307 -129q-95 -97 -119 -225q97 25 200 25q111 0 229 -29q119 -29 231 -29q100 0 193 23zM1245 502q-170 -32 -318 -32q-135 0 -252 27q-129 29 -246 29q-105 0 -199 -24q10 -154 126 -272q127 -130 307 -130t308 130
q52 53 83 116h159q-42 -119 -138 -215q-170 -170 -410 -170q-241 0 -411 170t-170 411t170 411.5t411 170.5q240 0 410 -170.5t170 -451.5zM561 1235l176 303h187l-242 -303h-121z" />
    <glyph glyph-name="ecircumflex" unicode="&#xea;" horiz-adv-x="1319" 
d="M1090 621q-24 138 -119 235q-128 129 -308 129t-307 -129q-95 -97 -119 -225q97 25 200 25q111 0 229 -29q119 -29 231 -29q100 0 193 23zM1245 502q-170 -32 -318 -32q-135 0 -252 27q-129 29 -246 29q-105 0 -199 -24q10 -154 126 -272q127 -130 307 -130t308 130
q52 53 83 116h159q-42 -119 -138 -215q-170 -170 -410 -170q-241 0 -411 170t-170 411t170 411.5t411 170.5q240 0 410 -170.5t170 -451.5zM680 1452l-211 -217h-158l285 303h168l285 -303h-158z" />
    <glyph glyph-name="edieresis" unicode="&#xeb;" horiz-adv-x="1319" 
d="M1090 621q-24 138 -119 235q-128 129 -308 129t-307 -129q-95 -97 -119 -225q97 25 200 25q111 0 229 -29q119 -29 231 -29q100 0 193 23zM1245 502q-170 -32 -318 -32q-135 0 -252 27q-129 29 -246 29q-105 0 -199 -24q10 -154 126 -272q127 -130 307 -130t308 130
q52 53 83 116h159q-42 -119 -138 -215q-170 -170 -410 -170q-241 0 -411 170t-170 411t170 411.5t411 170.5q240 0 410 -170.5t170 -451.5zM873 1303v167h141v-167h-141zM346 1303v167h141v-167h-141z" />
    <glyph glyph-name="igrave" unicode="&#xec;" horiz-adv-x="461" 
d="M160 0v1085h141v-1085h-141zM229 1235l-242 303h187l176 -303h-121z" />
    <glyph glyph-name="iacute" unicode="&#xed;" horiz-adv-x="461" 
d="M160 0v1085h141v-1085h-141zM112 1235l176 303h187l-242 -303h-121z" />
    <glyph glyph-name="icircumflex" unicode="&#xee;" horiz-adv-x="461" 
d="M160 0v1085h141v-1085h-141zM231 1452l-211 -217h-158l285 303h168l285 -303h-158z" />
    <glyph glyph-name="idieresis" unicode="&#xef;" horiz-adv-x="461" 
d="M160 0v1085h141v-1085h-141zM424 1303v167h141v-167h-141zM-103 1303v167h141v-167h-141z" />
    <glyph glyph-name="eth" unicode="&#xf0;" 
d="M944 956q-66 99 -119.5 169t-95.5 112l-367 -147l-36 77l340 138q-45 49 -76 78t-60 51l84 86q52 -43 98 -85t89 -85l315 127l35 -78l-289 -115q195 -223 288 -413.5t93 -364.5q0 -242 -158.5 -392.5t-412.5 -150.5q-264 0 -426 145t-162 377q0 242 158.5 392.5
t412.5 150.5q93 0 167.5 -18.5t121.5 -53.5zM229 500q0 -182 118 -291t317 -109q197 0 315.5 109t118.5 291q0 181 -118.5 290t-315.5 109q-199 0 -317 -108.5t-118 -290.5z" />
    <glyph glyph-name="ntilde" unicode="&#xf1;" horiz-adv-x="1305" 
d="M1026 0v583q0 213 -106.5 307.5t-266.5 94.5t-268 -99.5t-108 -282.5v-603h-145v603q0 241 151 381t372 140q220 0 369 -135t149 -406v-583h-147zM633 1352q-9 4 -23 11q-58 30 -94 30q-48 0 -77 -31.5t-40 -95.5h-98q12 112 70.5 175.5t148.5 63.5q29 0 59 -8t70 -29
l92 -47q9 -4 25 -12q59 -31 94 -31q48 0 77 32.5t40 96.5h98q-12 -112 -70.5 -176.5t-148.5 -64.5q-27 0 -56 8t-73 31z" />
    <glyph glyph-name="ograve" unicode="&#xf2;" 
d="M1075 953.5q170 -170.5 170 -411.5t-170 -411t-410 -170q-241 0 -411 170t-170 411t170 411.5t411 170.5q240 0 410 -170.5zM663 985q-180 0 -307 -129.5t-127 -313.5q0 -183 127 -312.5t307 -129.5t307.5 129.5t127.5 312.5q0 184 -127.5 313.5t-307.5 129.5zM662 1235
l-242 303h187l176 -303h-121z" />
    <glyph glyph-name="oacute" unicode="&#xf3;" 
d="M1075 953.5q170 -170.5 170 -411.5t-170 -411t-410 -170q-241 0 -411 170t-170 411t170 411.5t411 170.5q240 0 410 -170.5zM663 985q-180 0 -307 -129.5t-127 -313.5q0 -183 127 -312.5t307 -129.5t307.5 129.5t127.5 312.5q0 184 -127.5 313.5t-307.5 129.5zM545 1235
l176 303h187l-242 -303h-121z" />
    <glyph glyph-name="ocircumflex" unicode="&#xf4;" 
d="M1075 953.5q170 -170.5 170 -411.5t-170 -411t-410 -170q-241 0 -411 170t-170 411t170 411.5t411 170.5q240 0 410 -170.5zM663 985q-180 0 -307 -129.5t-127 -313.5q0 -183 127 -312.5t307 -129.5t307.5 129.5t127.5 312.5q0 184 -127.5 313.5t-307.5 129.5zM664 1452
l-211 -217h-158l285 303h168l285 -303h-158z" />
    <glyph glyph-name="otilde" unicode="&#xf5;" 
d="M1075 953.5q170 -170.5 170 -411.5t-170 -411t-410 -170q-241 0 -411 170t-170 411t170 411.5t411 170.5q240 0 410 -170.5zM663 985q-180 0 -307 -129.5t-127 -313.5q0 -183 127 -312.5t307 -129.5t307.5 129.5t127.5 312.5q0 184 -127.5 313.5t-307.5 129.5zM609 1352
q-9 4 -23 11q-58 30 -94 30q-48 0 -77 -31.5t-40 -95.5h-98q12 112 70.5 175.5t148.5 63.5q29 0 59 -8t70 -29l92 -47q9 -4 25 -12q59 -31 94 -31q48 0 77 32.5t40 96.5h98q-12 -112 -70.5 -176.5t-148.5 -64.5q-27 0 -56 8t-73 31z" />
    <glyph glyph-name="odieresis" unicode="&#xf6;" 
d="M1075 953.5q170 -170.5 170 -411.5t-170 -411t-410 -170q-241 0 -411 170t-170 411t170 411.5t411 170.5q240 0 410 -170.5zM663 985q-180 0 -307 -129.5t-127 -313.5q0 -183 127 -312.5t307 -129.5t307.5 129.5t127.5 312.5q0 184 -127.5 313.5t-307.5 129.5zM857 1303
v167h141v-167h-141zM330 1303v167h141v-167h-141z" />
    <glyph glyph-name="divide" unicode="&#xf7;" horiz-adv-x="1706" 
d="M854 365q45 0 76 -31t31 -76q0 -44 -31 -75t-76 -31t-75.5 31t-30.5 75t31 75.5t75 31.5zM1452 659v-98h-1198v98h1198zM854 1071q44 0 75.5 -32t31.5 -76q0 -45 -31 -76t-76 -31t-75.5 30.5t-30.5 76.5q0 44 31.5 76t74.5 32z" />
    <glyph glyph-name="oslash" unicode="&#xf8;" 
d="M324 250l637 633q-57 52 -130 77t-167 25q-199 0 -317 -120t-118 -322q0 -90 24.5 -165.5t70.5 -127.5zM1014 821l-635 -626q48 -47 120 -71t165 -24q198 0 316 120.5t118 322.5q0 82 -21.5 153.5t-62.5 124.5zM221 147q-71 83 -104 178t-33 218q0 260 160 420.5
t420 160.5q119 0 218 -35t181 -106l123 125l55 -57l-125 -125q66 -81 97.5 -175t31.5 -208q0 -260 -161 -421t-420 -161q-113 0 -207.5 32t-177.5 99l-140 -139l-53 57z" />
    <glyph glyph-name="ugrave" unicode="&#xf9;" horiz-adv-x="1305" 
d="M1175 1085v-543q0 -321 -145 -451t-365 -130q-221 0 -371 130t-150 371v623h145v-623q0 -183 107 -272.5t267 -89.5t262.5 89.5t102.5 352.5v543h147zM676 1235l-242 303h187l176 -303h-121z" />
    <glyph glyph-name="uacute" unicode="&#xfa;" horiz-adv-x="1305" 
d="M1175 1085v-543q0 -321 -145 -451t-365 -130q-221 0 -371 130t-150 371v623h145v-623q0 -183 107 -272.5t267 -89.5t262.5 89.5t102.5 352.5v543h147zM559 1235l176 303h187l-242 -303h-121z" />
    <glyph glyph-name="ucircumflex" unicode="&#xfb;" horiz-adv-x="1305" 
d="M1175 1085v-543q0 -321 -145 -451t-365 -130q-221 0 -371 130t-150 371v623h145v-623q0 -183 107 -272.5t267 -89.5t262.5 89.5t102.5 352.5v543h147zM678 1452l-211 -217h-158l285 303h168l285 -303h-158z" />
    <glyph glyph-name="udieresis" unicode="&#xfc;" horiz-adv-x="1305" 
d="M1175 1085v-543q0 -321 -145 -451t-365 -130q-221 0 -371 130t-150 371v623h145v-623q0 -183 107 -272.5t267 -89.5t262.5 89.5t102.5 352.5v543h147zM871 1303v167h141v-167h-141zM344 1303v167h141v-167h-141z" />
    <glyph glyph-name="yacute" unicode="&#xfd;" horiz-adv-x="1104" 
d="M553 -131q-75 -164 -149 -212t-205 -48q-25 0 -54.5 5t-68.5 15v135q45 -9 79.5 -13.5t59.5 -4.5q82 0 135.5 51t120.5 207l-496 1081h164l406 -940l409 940h158zM434 1235l176 303h187l-242 -303h-121z" />
    <glyph glyph-name="thorn" unicode="&#xfe;" horiz-adv-x="1384" 
d="M297 543q0 -199 116 -316.5t312 -117.5t313 118t117 316q0 197 -117 315.5t-313 118.5t-312 -117.5t-116 -316.5zM154 -389v1868h143v-584q82 111 186 163t244 52q259 0 417.5 -156.5t158.5 -410.5t-160 -412t-416 -158q-138 0 -242 51.5t-188 161.5v-575h-143z" />
    <glyph glyph-name="ydieresis" unicode="&#xff;" horiz-adv-x="1104" 
d="M553 -131q-75 -164 -149 -212t-205 -48q-25 0 -54.5 5t-68.5 15v135q45 -9 79.5 -13.5t59.5 -4.5q82 0 135.5 51t120.5 207l-496 1081h164l406 -940l409 940h158zM746 1303v167h141v-167h-141zM219 1303v167h141v-167h-141z" />
    <glyph glyph-name="Cacute" unicode="&#x106;" horiz-adv-x="1659" 
d="M1313 1255q-149 119 -427 119q-279 0 -462.5 -186t-183.5 -449t203.5 -449t452.5 -186q268 0 417 119v-173q-154 -89 -411 -89q-317 0 -564.5 228t-247.5 550q0 323 232.5 551t569.5 228q267 0 421 -89v-174zM774 1628l176 303h187l-242 -303h-121z" />
    <glyph glyph-name="cacute" unicode="&#x107;" horiz-adv-x="1251" 
d="M1051 870q-144 115 -364 115t-347 -129.5t-127 -313.5q0 -183 127 -312.5t347 -129.5t364 116v-158q-150 -97 -362 -97q-281 0 -451 170t-170 411t170 411.5t451 170.5q212 0 362 -98v-156zM569 1235l176 303h187l-242 -303h-121z" />
    <glyph glyph-name="Ccaron" unicode="&#x10c;" horiz-adv-x="1659" 
d="M1313 1255q-149 119 -427 119q-279 0 -462.5 -186t-183.5 -449t203.5 -449t452.5 -186q268 0 417 119v-173q-154 -89 -411 -89q-317 0 -564.5 228t-247.5 550q0 323 232.5 551t569.5 228q267 0 421 -89v-174zM893 1712l211 219h158l-285 -303h-168l-285 303h158z" />
    <glyph glyph-name="ccaron" unicode="&#x10d;" horiz-adv-x="1251" 
d="M1051 870q-144 115 -364 115t-347 -129.5t-127 -313.5q0 -183 127 -312.5t347 -129.5t364 116v-158q-150 -97 -362 -97q-281 0 -451 170t-170 411t170 411.5t451 170.5q212 0 362 -98v-156zM688 1319l211 219h158l-285 -303h-168l-285 303h158z" />
    <glyph glyph-name="dcroat" unicode="&#x111;" horiz-adv-x="1395" 
d="M1090 547q0 199 -117.5 317.5t-313.5 118.5q-194 0 -312 -119.5t-118 -316.5t117.5 -315.5t312.5 -118.5q197 0 314 118t117 316zM1233 1479v-142h162v-96h-162v-1241h-143v193q-86 -112 -190 -164t-243 -52q-256 0 -414.5 157.5t-158.5 412.5q0 254 158.5 411.5
t414.5 157.5q139 0 241 -50.5t192 -162.5v338h-459v96h459v142h143z" />
    <glyph glyph-name="Gbreve" unicode="&#x11e;" horiz-adv-x="1702" 
d="M1432 268q-77 -149 -224 -228t-350 -79q-344 0 -550 211t-206 567q0 363 207 571t570 208q278 0 459.5 -140t203.5 -370h-156q-35 178 -166.5 271t-349.5 93q-287 0 -452.5 -169t-165.5 -464q0 -291 165 -463t443 -172q234 0 395.5 135t161.5 324v74h-465v129h615v-766
h-119zM512 1917h102q8 -85 67.5 -127.5t170.5 -42.5t170.5 42.5t67.5 127.5h102q-17 -147 -100.5 -218t-239.5 -71t-239.5 71t-100.5 218z" />
    <glyph glyph-name="gbreve" unicode="&#x11f;" horiz-adv-x="1384" 
d="M217 542q0 -183 127.5 -312.5t307.5 -129.5t306 129.5t126 312.5q0 184 -126 313.5t-306 129.5t-307.5 -129.5t-127.5 -313.5zM1084 155q-11 -12 -23 -24q-170 -170 -411 -170q-240 0 -410 170t-170 411t170 411.5t410 170.5q241 0 411 -170.5t170 -411.5v-504
q0 -211 -155 -351t-425 -140q-311 0 -499 238l107 96q140 -195 390 -195q210 0 322.5 99.5t112.5 252.5v117zM352 1524h102q8 -85 67.5 -127.5t170.5 -42.5t170.5 42.5t67.5 127.5h102q-17 -147 -100.5 -218t-239.5 -71t-239.5 71t-100.5 218z" />
    <glyph glyph-name="Idotaccent" unicode="&#x130;" horiz-adv-x="516" 
d="M184 0v1479h148v-1479h-148zM174 1679v199h168v-199h-168z" />
    <glyph glyph-name="dotlessi" unicode="&#x131;" horiz-adv-x="461" 
d="M160 0v1085h141v-1085h-141z" />
    <glyph glyph-name="Lslash" unicode="&#x141;" horiz-adv-x="1319" 
d="M186 0v629l-163 -115l-62 84l225 156v725h146v-623l348 240l55 -86l-403 -283v-588h930v-139h-1076z" />
    <glyph glyph-name="lslash" unicode="&#x142;" horiz-adv-x="479" 
d="M168 0v633l-145 -101l-52 76l197 137v734h145v-635l138 100l57 -74l-195 -135v-735h-145z" />
    <glyph glyph-name="OE" unicode="&#x152;" horiz-adv-x="2570" 
d="M1337 1479h1137v-133h-989v-523h913v-139h-913v-534h989v-150h-1137v160q-89 -98 -213 -147.5t-282 -49.5q-335 0 -537.5 212t-202.5 564q0 354 204.5 566.5t543.5 212.5q160 0 287 -59t200 -167v187zM1337 362v728q-70 141 -190 211.5t-289 70.5q-278 0 -442 -170.5
t-164 -462.5q0 -291 163 -460.5t443 -169.5q71 0 132 10.5t112 32.5q72 30 130 82t105 128z" />
    <glyph glyph-name="oe" unicode="&#x153;" horiz-adv-x="2324" 
d="M1247 631h833q-9 162 -121.5 260t-289.5 98q-174 0 -291 -99.5t-131 -258.5zM1167 854q81 135 207 202.5t295 67.5q261 0 418.5 -158t157.5 -421v-33h-1003q8 -190 120 -302t293 -112q141 0 238.5 64.5t136.5 183.5h159q-39 -173 -183 -279t-337 -106q-167 0 -292 67.5
t-210 202.5q-80 -132 -208.5 -201t-294.5 -69q-260 0 -420 161t-160 421t160 420.5t420 160.5q168 0 298 -69.5t205 -200.5zM229 543q0 -203 118 -323t317 -120q198 0 316 120.5t118 322.5t-118 322t-316 120q-199 0 -317 -120t-118 -322z" />
    <glyph glyph-name="Scedilla" unicode="&#x15e;" horiz-adv-x="1473" 
d="M725 -39q-367 5 -539 129l80 138q158 -122 471 -122q211 0 335 82.5t124 221.5q0 106 -71.5 160.5t-297.5 95.5l-315 55q-176 30 -263 122t-87 247q0 195 152 311.5t451 116.5q318 0 535 -140l-67 -131q-217 135 -464 135q-232 0 -344 -76.5t-112 -207.5
q0 -104 78 -159.5t291 -92.5l281 -49q202 -36 295.5 -127t93.5 -254q0 -214 -158 -334q-144 -109 -388 -120l-51 -89q21 6 43.5 9t42.5 3q87 0 135 -43t48 -121q0 -82 -62.5 -128t-175.5 -46q-55 0 -124 13t-148 39l24 65q64 -18 116.5 -27.5t94.5 -9.5q72 0 108 24.5
t36 72.5q0 39 -24.5 59t-72.5 20q-17 0 -39.5 -3.5t-72.5 -14.5l-41 31z" />
    <glyph glyph-name="scedilla" unicode="&#x15f;" horiz-adv-x="1161" 
d="M410 -39q-198 3 -350 85l64 127q131 -75 287 -75q145 0 237 56.5t92 145.5t-111 133.5t-243 73t-213.5 98.5t-81.5 200q0 147 114 233t306 86q191 0 332 -75l-55 -138q-119 72 -266 72t-215 -48t-68 -122q0 -80 53 -117.5t179.5 -68t270 -94t143.5 -237.5
q0 -155 -127 -245q-106 -75 -267 -87l-51 -91q21 6 43.5 9t42.5 3q87 0 135 -43t48 -121q0 -82 -62.5 -128t-175.5 -46q-55 0 -124 13t-148 39l24 65q64 -18 116.5 -27.5t94.5 -9.5q72 0 108 24.5t36 72.5q0 39 -24.5 59t-72.5 20q-17 0 -39.5 -3.5t-72.5 -14.5l-41 31z" />
    <glyph glyph-name="Scaron" unicode="&#x160;" horiz-adv-x="1473" 
d="M769 1382q-232 0 -344 -76.5t-112 -207.5q0 -104 78 -159.5t291 -92.5l281 -49q202 -36 295.5 -127t93.5 -254q0 -214 -158.5 -334.5t-441.5 -120.5q-388 0 -566 129l80 138q158 -122 471 -122q211 0 335 82.5t124 221.5q0 106 -71.5 160.5t-297.5 95.5l-315 55
q-176 30 -263 122t-87 247q0 195 152 311.5t451 116.5q318 0 535 -140l-67 -131q-217 135 -464 135zM737 1712l211 219h158l-285 -303h-168l-285 303h158z" />
    <glyph glyph-name="scaron" unicode="&#x161;" horiz-adv-x="1161" 
d="M508 984q-137 0 -203 -48.5t-66 -122.5q0 -135 318 -212.5t318 -314.5q0 -145 -127 -235t-334 -90q-197 0 -354 85l64 127q141 -75 287 -75q145 0 232 56.5t87 135.5q0 126 -319.5 208t-319.5 307q0 137 109 228t301 91q201 0 342 -75l-55 -138q-123 73 -280 73z
M582 1319l211 219h158l-285 -303h-168l-285 303h158z" />
    <glyph glyph-name="Ydieresis" unicode="&#x178;" horiz-adv-x="1473" 
d="M662 0v639l-637 840h188l522 -721l529 721h182l-637 -840v-639h-147zM930 1696v167h141v-167h-141zM403 1696v167h141v-167h-141z" />
    <glyph glyph-name="Zcaron" unicode="&#x17d;" horiz-adv-x="1425" 
d="M66 0v145l1087 1196h-1034v138h1239v-138l-1108 -1196h1108v-145h-1292zM713 1712l211 219h158l-285 -303h-168l-285 303h158z" />
    <glyph glyph-name="zcaron" unicode="&#x17e;" horiz-adv-x="1151" 
d="M66 0v141l819 811h-781v133h953v-137l-817 -811h845v-137h-1019zM575 1319l211 219h158l-285 -303h-168l-285 303h158z" />
    <glyph glyph-name="florin" unicode="&#x192;" 
d="M612 627h-237l22 108h238l86 406q45 212 108.5 276t194.5 64q30 0 67.5 -4t79.5 -11l-26 -127q-29 6 -59 9.5t-60 3.5q-68 0 -99.5 -32.5t-54.5 -139.5l-94 -445h234l-23 -108h-233l-150 -703q-45 -212 -108 -276t-193 -64q-38 0 -74 3t-73 10l26 128q36 -7 64.5 -10.5
t52.5 -3.5q68 0 99.5 32.5t54.5 139.5z" />
    <glyph glyph-name="circumflex" unicode="&#x2c6;" horiz-adv-x="1024" 
d="M512 1452l-211 -217h-158l285 303h168l285 -303h-158z" />
    <glyph glyph-name="caron" unicode="&#x2c7;" horiz-adv-x="1024" 
d="M512 1319l211 219h158l-285 -303h-168l-285 303h158z" />
    <glyph glyph-name="breve" unicode="&#x2d8;" horiz-adv-x="1024" 
d="M172 1524h102q8 -85 67.5 -127.5t170.5 -42.5t170.5 42.5t67.5 127.5h102q-17 -147 -100.5 -218t-239.5 -71t-239.5 71t-100.5 218z" />
    <glyph glyph-name="dotaccent" unicode="&#x2d9;" horiz-adv-x="1024" 
d="M428 1286v199h168v-199h-168z" />
    <glyph glyph-name="ring" unicode="&#x2da;" horiz-adv-x="1024" 
d="M383 1415q0 -52 35.5 -84.5t93.5 -32.5t92.5 32t34.5 85q0 54 -34 85.5t-93 31.5q-60 0 -94.5 -31.5t-34.5 -85.5zM281 1415q0 92 62 145.5t169 53.5t168 -53t61 -146q0 -92 -61 -145t-168 -53t-169 53t-62 145z" />
    <glyph glyph-name="ogonek" unicode="&#x2db;" horiz-adv-x="1024" 
d="M584 0q-71 -64 -104.5 -118.5t-33.5 -104.5q0 -44 23 -63t76 -19h80v-129h-80q-113 0 -167 40t-54 124q0 65 40.5 125t147.5 145h72z" />
    <glyph glyph-name="tilde" unicode="&#x2dc;" horiz-adv-x="1024" 
d="M457 1352q-9 4 -23 11q-58 30 -94 30q-48 0 -77 -31.5t-40 -95.5h-98q12 112 70.5 175.5t148.5 63.5q29 0 59 -8t70 -29l92 -47q9 -4 25 -12q59 -31 94 -31q48 0 77 32.5t40 96.5h98q-12 -112 -70.5 -176.5t-148.5 -64.5q-27 0 -56 8t-73 31z" />
    <glyph glyph-name="hungarumlaut" unicode="&#x2dd;" horiz-adv-x="1024" 
d="M569 1235l119 305h170l-192 -305h-97zM311 1235l119 305h172l-194 -305h-97z" />
    <glyph glyph-name="Omega" unicode="&#x3a9;" horiz-adv-x="1579" 
d="M1462 139v-139h-581v127q207 124 313 293.5t106 374.5q0 260 -141.5 420.5t-367.5 160.5q-228 0 -370 -160t-142 -419q0 -207 106.5 -377.5t312.5 -292.5v-127h-581v139h344q-173 133 -256.5 291.5t-83.5 353.5q0 320 188.5 524.5t481.5 204.5q291 0 480 -203.5
t189 -523.5q0 -196 -83.5 -354t-258.5 -293h344z" />
    <glyph glyph-name="pi" unicode="&#x3c0;" horiz-adv-x="1171" 
d="M1120 944h-182l-115 -541q-15 -69 -22.5 -117t-7.5 -71q0 -58 25 -82t85 -24q29 0 51 2.5t41 6.5l-26 -118q-28 -8 -53.5 -12t-47.5 -4q-101 0 -157 53t-56 149q0 46 11 118t45 233l86 407h-365l-199 -944h-139l199 944h-39q-55 0 -85.5 -31.5t-41.5 -99.5h-131
q25 143 88 197.5t215 54.5h848z" />
    <glyph glyph-name="endash" unicode="&#x2013;" horiz-adv-x="1024" 
d="M0 492v104h1024v-104h-1024z" />
    <glyph glyph-name="emdash" unicode="&#x2014;" horiz-adv-x="2048" 
d="M2048 596v-104h-2048v104h2048z" />
    <glyph glyph-name="quoteleft" unicode="&#x2018;" horiz-adv-x="592" 
d="M379 1196v-178h-166v237q0 116 37.5 174t128.5 89v-97q-40 -21 -58 -53t-18 -84v-88h76z" />
    <glyph glyph-name="quoteright" unicode="&#x2019;" horiz-adv-x="592" 
d="M213 1298v181h166v-240q0 -114 -37.5 -172t-128.5 -88v94q40 21 58 53t18 84v88h-76z" />
    <glyph glyph-name="quotesinglbase" unicode="&#x201a;" horiz-adv-x="592" 
d="M213 0v180h166v-239q0 -115 -37.5 -172.5t-128.5 -87.5v94q40 21 58 53t18 84v88h-76z" />
    <glyph glyph-name="quotedblleft" unicode="&#x201c;" horiz-adv-x="924" 
d="M711 1196v-178h-166v237q0 116 37.5 174t128.5 89v-97q-41 -21 -58.5 -53t-17.5 -84v-88h76zM379 1196v-178h-166v237q0 116 37.5 174t128.5 89v-97q-40 -21 -58 -53t-18 -84v-88h76z" />
    <glyph glyph-name="quotedblright" unicode="&#x201d;" horiz-adv-x="924" 
d="M213 1298v181h166v-240q0 -114 -37.5 -172t-128.5 -88v94q40 21 58 53t18 84v88h-76zM545 1298v181h166v-240q0 -114 -37.5 -172t-128.5 -88v94q40 21 58 53t18 84v88h-76z" />
    <glyph glyph-name="quotedblbase" unicode="&#x201e;" horiz-adv-x="924" 
d="M213 0v180h166v-239q0 -115 -37.5 -172.5t-128.5 -87.5v94q40 21 58 53t18 84v88h-76zM545 0v180h166v-239q0 -115 -37.5 -172.5t-128.5 -87.5v94q40 21 58 53t18 84v88h-76z" />
    <glyph glyph-name="dagger" unicode="&#x2020;" 
d="M592 -350v1204h-469v137h469v488h143v-488h469v-137h-469v-1204h-143z" />
    <glyph glyph-name="daggerdbl" unicode="&#x2021;" 
d="M596 897h-479v133h479v449h139v-449h477v-133h-477v-664h475v-133h-475v-450h-139v450h-481v133h481v664z" />
    <glyph glyph-name="bullet" unicode="&#x2022;" horiz-adv-x="1208" 
d="M307 762q0 123 87 209t210 86q122 0 208.5 -86.5t86.5 -208.5t-87.5 -209.5t-209.5 -87.5q-123 0 -209 87t-86 210z" />
    <glyph glyph-name="ellipsis" unicode="&#x2026;" horiz-adv-x="2048" 
d="M260 0v180h166v-180h-166zM942 0v180h166v-180h-166zM1626 0v180h166v-180h-166z" />
    <glyph glyph-name="perthousand" unicode="&#x2030;" horiz-adv-x="2515" 
d="M367 -39l864 1518h121l-865 -1518h-120zM1874 354q0 -144 55 -218.5t162 -74.5t161 73.5t54 219.5t-54 219.5t-161 73.5t-162 -74t-55 -219zM1759 354q0 192 85.5 293t246.5 101q162 0 246 -100.5t84 -293.5t-84 -293t-246 -100q-161 0 -246.5 101t-85.5 292zM1077 354
q0 -144 55 -218.5t162 -74.5q108 0 161.5 73.5t53.5 219.5t-53.5 219.5t-161.5 73.5q-107 0 -162 -74t-55 -219zM963 354q0 192 85 293t246 101q162 0 246 -100.5t84 -293.5t-84 -293t-246 -100q-161 0 -246 101t-85 292zM209 1087q0 -144 55 -219t162 -75t161 74t54 220
q0 147 -54 220t-161 73t-162 -74t-55 -219zM94 1087q0 192 85 292t247 100t246 -99.5t84 -292.5q0 -192 -84 -292.5t-246 -100.5q-161 0 -246.5 101t-85.5 292z" />
    <glyph glyph-name="guilsinglleft" unicode="&#x2039;" horiz-adv-x="635" 
d="M129 643l358 272v-161l-276 -211l276 -211v-162l-358 272v201z" />
    <glyph glyph-name="guilsinglright" unicode="&#x203a;" horiz-adv-x="635" 
d="M506 442l-359 -272v162l277 211l-277 211v161l359 -272v-201z" />
    <glyph glyph-name="franc" unicode="&#x20a3;" horiz-adv-x="2097" 
d="M174 0v1479h1094v-140h-946v-510h843v-145h-843v-684h-148zM2027 968q-56 17 -119 17q-171 0 -263 -94.5t-92 -278.5v-612h-145v612q0 241 135 376.5t363 135.5q63 0 121 -12v-144z" />
    <glyph glyph-name="trademark" unicode="&#x2122;" horiz-adv-x="1706" 
d="M938 1454l166 -422l156 422h116v-530h-71v467l-177 -467h-49l-186 467v-467h-72v530h117zM694 1454v-57h-172v-473h-82v473h-176v57h430z" />
    <glyph glyph-name="partialdiff" unicode="&#x2202;" horiz-adv-x="1034" 
d="M752 592q12 83 18 160t6 149q0 158 -40 242t-115 84q-50 0 -108 -68.5t-103 -68.5q-31 0 -52.5 20t-21.5 47q0 62 63.5 107t155.5 45q165 0 264 -150.5t99 -406.5q0 -334 -136 -556.5t-333 -222.5q-143 0 -233.5 107t-90.5 278q0 179 109 304.5t262 125.5q98 0 160.5 -48
t95.5 -148zM711 463q0 128 -45 193t-134 65q-113 0 -186.5 -124.5t-73.5 -322.5q0 -126 44.5 -188.5t134.5 -62.5q112 0 186 125.5t74 314.5z" />
    <glyph glyph-name="Delta" unicode="&#x2206;" horiz-adv-x="1346" 
d="M1139 139l-467 1186l-465 -1186h932zM766 1473l590 -1473h-1366l590 1473h186z" />
    <glyph glyph-name="product" unicode="&#x220f;" horiz-adv-x="1509" 
d="M160 1473h1188v-1866h-168v1718h-852v-1718h-168v1866z" />
    <glyph glyph-name="summation" unicode="&#x2211;" horiz-adv-x="1317" 
d="M49 1473h1223v-144h-1014l705 -766l-740 -813h1057v-143h-1266v133l744 821l-709 772v140z" />
    <glyph glyph-name="minus" unicode="&#x2212;" horiz-adv-x="1706" 
d="M1452 659v-98h-1198v98h1198z" />
    <glyph glyph-name="fraction" unicode="&#x2215;" horiz-adv-x="426" 
d="M-426 -39l1147 1518h133l-1149 -1518h-131z" />
    <glyph glyph-name="periodcentered" unicode="&#x2219;" horiz-adv-x="664" 
d="M225 721q0 44 31 74t76 30t75.5 -30t30.5 -74q0 -45 -31 -76t-75 -31q-45 0 -76 31t-31 76z" />
    <glyph glyph-name="radical" unicode="&#x221a;" horiz-adv-x="1276" 
d="M1276 1636v-71h-125l-594 -1606h-41l-328 899l-114 -39l-19 58l246 86l272 -746l525 1419h178z" />
    <glyph glyph-name="infinity" unicode="&#x221e;" horiz-adv-x="1706" 
d="M897 559q52 -100 122 -149.5t159 -49.5q106 0 173.5 75t67.5 192q0 113 -62.5 187.5t-156.5 74.5q-86 0 -155 -74t-148 -256zM811 668q-52 99 -121.5 147.5t-159.5 48.5q-106 0 -173.5 -74.5t-67.5 -189.5q0 -112 63 -187t156 -75q87 0 156.5 75t146.5 255zM838 721
q72 144 149 206t182 62q124 0 215 -107.5t91 -265.5q0 -169 -81.5 -273.5t-211.5 -104.5q-95 0 -168 60.5t-146 203.5q-71 -139 -148 -201.5t-173 -62.5q-132 0 -223 106.5t-91 267.5q0 169 81.5 273t211.5 104q97 0 171.5 -64t140.5 -204z" />
    <glyph glyph-name="integral" unicode="&#x222b;" horiz-adv-x="985" 
d="M293 -272q104 0 117 713q2 127 4 196q11 486 98 698.5t268 212.5q70 0 114 -37t44 -96q0 -48 -28.5 -76t-78.5 -28q-78 0 -103 69.5t-34 69.5q-105 0 -116 -623q-4 -185 -7 -289q-15 -497 -101 -703t-267 -206q-69 0 -113.5 36t-44.5 91q0 51 31 81t82 30
q36 0 61.5 -16.5t40.5 -51.5q4 -9 7 -33q4 -38 26 -38z" />
    <glyph glyph-name="approxequal" unicode="&#x2248;" horiz-adv-x="1706" 
d="M1530 469q-106 -74 -201 -109.5t-186 -35.5q-101 0 -291 69.5t-287 69.5q-82 0 -171 -36.5t-216 -123.5v111q107 74 202 109.5t185 35.5q109 0 298.5 -68.5t279.5 -68.5q86 0 175 35.5t212 122.5v-111zM1530 807q-104 -74 -199 -109.5t-188 -35.5q-103 0 -292 69.5
t-286 69.5q-82 0 -171 -36.5t-216 -123.5v113q105 73 201 109t186 36q109 0 298.5 -69.5t279.5 -69.5q84 0 171 34.5t216 123.5v-111z" />
    <glyph glyph-name="notequal" unicode="&#x2260;" horiz-adv-x="1706" 
d="M1288 1110l-205 -264h369v-96h-432l-215 -277h647v-98h-709l-254 -324l-73 60l205 264h-367v98h428l215 277h-643v96h707l253 323z" />
    <glyph glyph-name="lessequal" unicode="&#x2264;" horiz-adv-x="1706" 
d="M1442 139v-98h-1178v98h1178zM1442 1075l-1010 -338l1010 -336v-106l-1178 401v84l1178 402v-107z" />
    <glyph glyph-name="greaterequal" unicode="&#x2265;" horiz-adv-x="1706" 
d="M1442 139v-98h-1178v98h1178zM1442 780v-84l-1178 -401v106l1010 336l-1010 338v107z" />
    <glyph glyph-name="lozenge" unicode="&#x25ca;" horiz-adv-x="1012" 
d="M506 1409l-385 -817l385 -825l385 825zM506 1653l500 -1061l-500 -1069l-500 1069z" />
    <glyph glyph-name="apple" unicode="&#xf000;" horiz-adv-x="1618" 
d="M836 1216q-1 6 -1.5 14t-0.5 23q0 124 95 229.5t236 131.5q1 -10 1.5 -23t0.5 -39q0 -131 -103.5 -234.5t-203.5 -103.5h-8q-3 0 -7.5 1t-8.5 1zM1505 403q-114 -247 -205 -342.5t-204 -95.5q-50 0 -131.5 33t-122.5 33q-45 0 -131 -33t-127 -33q-64 0 -128.5 44
t-129.5 132q-102 140 -157.5 295.5t-55.5 300.5q0 219 125 356.5t323 137.5q68 0 155 -34t124 -34q34 0 121.5 34t152.5 34q111 0 199 -39.5t160 -122.5q-102 -65 -151.5 -145.5t-49.5 -182.5q0 -113 60 -200t173 -138z" />
    <glyph glyph-name="fi" unicode="&#xf001;" horiz-adv-x="1067" 
d="M213 0v967h-184v118h184v86q0 186 50 248t179 62q34 0 74 -6.5t86 -18.5v-125q-44 11 -71 15t-50 4q-73 0 -99 -28t-26 -130v-107h246v-118h-246v-967h-143zM766 0v1085h141v-1085h-141zM766 1311v170h141v-170h-141z" />
    <glyph glyph-name="fl" unicode="&#xf002;" horiz-adv-x="1067" 
d="M213 0v967h-184v118h184v86q0 186 50 248t179 62q34 0 74 -6.5t86 -18.5v-125q-44 11 -71 15t-50 4q-73 0 -99 -28t-26 -130v-107h246v-118h-246v-967h-143zM766 0v1481h141v-1481h-141z" />
    </font>
</defs>
</svg>
